<svg xmlns="http://www.w3.org/2000/svg" width="2000" height="400" viewBox="0 0 2000 400">
  <defs>
    <style>
      .cls-1, .cls-6 {
        fill: #f5f5f5;
      }

      .cls-2 {
        fill: #00005a;
      }

      .cls-3, .cls-5 {
        fill: none;
      }

      .cls-3, .cls-4, .cls-5, .cls-6 {
        stroke: #ed1847;
      }

      .cls-3, .cls-5, .cls-6 {
        stroke-linecap: round;
        stroke-linejoin: round;
      }

      .cls-3 {
        stroke-width: 6.18px;
      }

      .cls-4, .cls-7 {
        fill: #ed1847;
      }

      .cls-4 {
        stroke-miterlimit: 10;
        stroke-width: 4px;
      }

      .cls-5 {
        stroke-width: 6px;
      }

      .cls-6 {
        stroke-width: 5px;
      }
    </style>
  </defs>
  <title>branding_core</title>
  <g id="Layer_2" data-name="Layer 2">
    <g id="Layer_3" data-name="Layer 3">
      <rect class="cls-1" width="2000" height="400"/>
      <circle class="cls-2" cx="341" cy="113" r="7.5"/>
      <circle class="cls-2" cx="1357.5" cy="324.7" r="7.5"/>
      <circle class="cls-2" cx="1858.8" cy="302.8" r="7.5"/>
      <circle class="cls-2" cx="1155.5" cy="149" r="7.5"/>
      <circle class="cls-2" cx="1045.2" cy="30" r="7.5"/>
      <circle class="cls-2" cx="1429" cy="123" r="7.5"/>
      <circle class="cls-2" cx="1547" cy="229.7" r="7.5"/>
      <circle class="cls-2" cx="1773" cy="133" r="7.5"/>
      <circle class="cls-2" cx="814.6" cy="312.6" r="7.5"/>
      <circle class="cls-2" cx="675" cy="204.3" r="7.5"/>
      <circle class="cls-2" cx="903" cy="105.1" r="7.5"/>
      <circle class="cls-2" cx="605.3" cy="339.6" r="7.5"/>
      <circle class="cls-2" cx="1317" cy="83.6" r="7.5"/>
      <circle class="cls-2" cx="1055.2" cy="342.4" r="7.5"/>
      <circle class="cls-2" cx="213.1" cy="85.1" r="7.5"/>
      <circle class="cls-2" cx="121" cy="369" r="7.5"/>
      <circle class="cls-2" cx="315.1" cy="16.1" r="7.5"/>
      <circle class="cls-2" cx="78.3" cy="146.9" r="7.5"/>
      <circle class="cls-2" cx="57.5" cy="22.5" r="7.5"/>
      <circle class="cls-2" cx="472.6" cy="380.6" r="7.5"/>
      <circle class="cls-2" cx="1896.7" cy="272.7" r="7.5"/>
      <circle class="cls-2" cx="1906.7" cy="346" r="7.5"/>
      <circle class="cls-2" cx="1674.2" cy="275.9" r="7.5"/>
      <circle class="cls-2" cx="1449.7" cy="224" r="7.5"/>
      <circle class="cls-2" cx="1262.8" cy="244" r="7.5"/>
      <circle class="cls-2" cx="1507.1" cy="387.8" r="7.5"/>
      <path class="cls-3" d="M629.6,113.4s33.5-20.1,45.7-24.6c10.1-3.6,33.5-6.3,52.2,4.7,0,0-10.4,27.4-34.1,36.2a455.5,455.5,0,0,1-50.1,14.6"/>
      <circle class="cls-3" cx="676.4" cy="111.5" r="9.3"/>
      <path class="cls-3" d="M687.7,86.8S715.3,94.4,703,124"/>
      <ellipse class="cls-4" cx="636.1" cy="128.8" rx="5.7" ry="16.6" transform="translate(-0.1 257.1) rotate(-22.8)"/>
      <path class="cls-3" d="M671.2,89.2s-29-23.1-66.1-3.3c0,0,19.4,14.8,29.1,24"/>
      <path class="cls-3" d="M691.2,130.8s-5,36.5-44.8,50.1c0,0,4.6-23.7,4.4-37.1"/>
      <path class="cls-5" d="M188,391c4-3-48.7-160,370.3-236"/>
      <path class="cls-5" d="M263,391c4-3-90-134,296-236"/>
      <path class="cls-6" d="M607.8,131.1s-15.1-1.4-23.7,6l7.9,3.1a173.8,173.8,0,0,0-23,11.1s19.7,1.3,26.4-3.6l-1.7,7.2s16.3-1.5,22.3-10a103.4,103.4,0,0,1-4.2,10.9s13.3-1.9,23.1-27c0,0-21.4-8-35.9-2.9A12.8,12.8,0,0,1,607.8,131.1Z"/>
      <circle class="cls-7" cx="1211.2" cy="35" r="10.4"/>
    </g>
  </g>
</svg>
