<svg xmlns="http://www.w3.org/2000/svg" width="2000" height="800" viewBox="0 0 2000 800">
  <defs>
    <style>
      .cls-1 {
        fill: #f5f5f5;
      }

      .cls-2 {
        fill: #ed1847;
      }

      .cls-3 {
        fill: #00005a;
      }
    </style>
  </defs>
  <title>branding_core</title>
  <g id="Layer_2" data-name="Layer 2">
    <g id="Layer_2-2" data-name="Layer 2">
      <g>
        <rect class="cls-1" width="2000" height="800"/>
        <circle class="cls-2" cx="953" cy="387.8" r="10"/>
        <circle class="cls-3" cx="711" cy="449" r="7.5"/>
        <circle class="cls-3" cx="471" cy="649" r="7.5"/>
        <circle class="cls-3" cx="1337" cy="659" r="7.5"/>
        <circle class="cls-3" cx="341" cy="113" r="7.5"/>
        <circle class="cls-3" cx="461" cy="421" r="7.5"/>
        <circle class="cls-3" cx="65" cy="788.2" r="7.5"/>
        <circle class="cls-3" cx="675" cy="745" r="7.5"/>
        <circle class="cls-3" cx="1357.5" cy="324.7" r="7.5"/>
        <circle class="cls-3" cx="1252.8" cy="755" r="7.5"/>
        <circle class="cls-3" cx="1135.5" cy="443" r="7.5"/>
        <circle class="cls-3" cx="1126.9" cy="772.5" r="7.5"/>
        <circle class="cls-3" cx="1495.3" cy="589.1" r="7.5"/>
        <circle class="cls-3" cx="1929" cy="745" r="7.5"/>
        <circle class="cls-3" cx="1155.5" cy="149" r="7.5"/>
        <circle class="cls-3" cx="1045.2" cy="30" r="7.5"/>
        <circle class="cls-3" cx="1429" cy="123" r="7.5"/>
        <circle class="cls-3" cx="1547" cy="229.7" r="7.5"/>
        <circle class="cls-3" cx="1773" cy="133" r="7.5"/>
        <circle class="cls-3" cx="814.6" cy="312.6" r="7.5"/>
        <circle class="cls-3" cx="675" cy="204.3" r="7.5"/>
        <circle class="cls-3" cx="903" cy="105.1" r="7.5"/>
        <circle class="cls-3" cx="605.3" cy="339.6" r="7.5"/>
        <circle class="cls-3" cx="894.4" cy="460.2" r="7.5"/>
        <circle class="cls-3" cx="1317" cy="83.6" r="7.5"/>
        <circle class="cls-3" cx="980.5" cy="788.2" r="7.5"/>
        <circle class="cls-3" cx="1055.2" cy="342.4" r="7.5"/>
        <circle class="cls-3" cx="970.5" cy="643.1" r="7.5"/>
        <circle class="cls-3" cx="833.2" cy="596.9" r="7.5"/>
        <circle class="cls-3" cx="825.7" cy="717.4" r="7.5"/>
        <circle class="cls-3" cx="1193" cy="606.9" r="7.5"/>
        <circle class="cls-3" cx="356.9" cy="421" r="7.5"/>
        <circle class="cls-3" cx="387.4" cy="194.3" r="7.5"/>
        <circle class="cls-3" cx="302.7" cy="494.9" r="7.5"/>
        <circle class="cls-3" cx="165.4" cy="312.6" r="7.5"/>
        <circle class="cls-3" cx="156.8" cy="667.7" r="7.5"/>
        <circle class="cls-3" cx="525.2" cy="458.7" r="7.5"/>
        <circle class="cls-3" cx="199.1" cy="249.7" r="7.5"/>
        <circle class="cls-3" cx="219.1" cy="30" r="7.5"/>
        <circle class="cls-3" cx="144.9" cy="285.9" r="7.5"/>
        <circle class="cls-3" cx="57.5" cy="22.5" r="7.5"/>
        <circle class="cls-3" cx="22.8" cy="450.5" r="7.5"/>
        <circle class="cls-3" cx="367.4" cy="249.7" r="7.5"/>
        <circle class="cls-3" cx="1632.6" cy="724.9" r="7.5"/>
        <circle class="cls-3" cx="1967" cy="714.9" r="7.5"/>
        <circle class="cls-3" cx="1977" cy="788.2" r="7.5"/>
        <circle class="cls-3" cx="1736.4" cy="552.6" r="7.5"/>
        <circle class="cls-3" cx="1967" cy="569.1" r="7.5"/>
        <circle class="cls-3" cx="1377.5" cy="548.6" r="7.5"/>
        <circle class="cls-3" cx="1654.2" cy="613.8" r="7.5"/>
        <circle class="cls-3" cx="1576.9" cy="765" r="7.5"/>
        <circle class="cls-3" cx="1674.2" cy="275.9" r="7.5"/>
        <circle class="cls-3" cx="1449.7" cy="224" r="7.5"/>
        <circle class="cls-3" cx="1485.3" cy="724.9" r="7.5"/>
        <circle class="cls-3" cx="1812.5" cy="543.9" r="7.5"/>
        <circle class="cls-3" cx="1294.6" cy="569.1" r="7.5"/>
        <circle class="cls-3" cx="1262.8" cy="244" r="7.5"/>
        <circle class="cls-3" cx="1284.6" cy="424.1" r="7.5"/>
        <circle class="cls-3" cx="1507.1" cy="387.8" r="7.5"/>
        <circle class="cls-3" cx="1694.7" cy="503.4" r="7.5"/>
        <circle class="cls-3" cx="95.3" cy="788.2" r="7.5"/>
        <circle class="cls-3" cx="175.4" cy="788.2" r="7.5"/>
        <circle class="cls-3" cx="366.9" cy="669" r="7.5"/>
        <circle class="cls-3" cx="341" cy="780.2" r="7.5"/>
      </g>
    </g>
  </g>
</svg>
