<svg xmlns="http://www.w3.org/2000/svg" width="467.9" height="405.7" viewBox="0 0 467.9 405.7">
  <defs>
    <style>
      .cls-1, .cls-10, .cls-11, .cls-13, .cls-22, .cls-25, .cls-3, .cls-7, .cls-8 {
        fill: #fff;
      }

      .cls-12, .cls-18, .cls-19, .cls-2, .cls-20, .cls-26, .cls-4, .cls-5, .cls-9 {
        fill: none;
      }

      .cls-10, .cls-11, .cls-12, .cls-13, .cls-2, .cls-22, .cls-24, .cls-4, .cls-5, .cls-7, .cls-8, .cls-9 {
        stroke: #160e44;
      }

      .cls-10, .cls-12, .cls-13, .cls-16, .cls-18, .cls-19, .cls-2, .cls-20, .cls-22, .cls-24, .cls-26, .cls-3, .cls-4, .cls-5, .cls-7, .cls-8, .cls-9 {
        stroke-miterlimit: 10;
      }

      .cls-2, .cls-24, .cls-3 {
        stroke-width: 2px;
      }

      .cls-19, .cls-20, .cls-3 {
        stroke: #ed1846;
      }

      .cls-20, .cls-22, .cls-4 {
        stroke-width: 1.5px;
      }

      .cls-13, .cls-26, .cls-5 {
        stroke-width: 0.5px;
      }

      .cls-17, .cls-23, .cls-6 {
        fill: #160e44;
      }

      .cls-6 {
        opacity: 0.3;
      }

      .cls-7, .cls-9 {
        stroke-width: 4px;
      }

      .cls-10, .cls-19 {
        stroke-width: 3px;
      }

      .cls-11 {
        stroke-linejoin: round;
      }

      .cls-14, .cls-24 {
        fill: #00aeef;
      }

      .cls-15 {
        fill: #e6e7e8;
      }

      .cls-16 {
        fill: #f9c2ca;
      }

      .cls-16, .cls-18, .cls-26 {
        stroke: #fff;
      }

      .cls-18 {
        stroke-linecap: round;
        stroke-dasharray: 0 3;
      }

      .cls-21 {
        fill: #ed1846;
      }

      .cls-23 {
        opacity: 0.15;
      }

      .cls-25 {
        opacity: 0.6;
      }
    </style>
  </defs>
  <title>map-hardstr</title>
  <g id="Layer_2" data-name="Layer 2">
    <g id="text">
      <g>
        <rect class="cls-1" width="467.9" height="405.72"/>
        <path class="cls-2" d="M225.8,278.1s-12-6.8-16,2.5c-2.2,5-11.8,4.5-13.5-7.5"/>
        <polyline class="cls-3" points="238.3 176.3 186.3 285.2 141.6 301.2 51 216.5"/>
        <circle class="cls-3" cx="166.8" cy="300.4" r="25"/>
        <g>
          <polygon class="cls-4" points="299.2 45.8 288.3 49.7 286.9 55.2 276.9 62.5 276.9 90.8 279.2 92.3 279.2 104.9 292.2 112.2 304.6 102.5 304.6 94.9 306.9 89.3 307.1 65.8 308.3 64.5 308.5 48.2 299.2 45.8"/>
          <polyline class="cls-5" points="276.9 62.9 290.5 69.8 304.4 59.6 304.4 53.8 308.3 48.2"/>
          <line class="cls-5" x1="290.5" y1="69.7" x2="290.4" y2="97.9"/>
          <line class="cls-5" x1="304.4" y1="59.4" x2="304.4" y2="102.8"/>
          <polyline class="cls-5" points="276.9 90.8 290.4 98.1 292.5 96.7 292.2 112.2"/>
        </g>
        <path class="cls-6" d="M461.9,99.5s-96.3,61.4-26.2,137.2c.2.1-9.9,19.5-9.9,19.5C339.4,168.2,454.2,86,454.2,86"/>
        <line class="cls-7" x1="319.6" y1="302.8" x2="207.8" y2="241.8"/>
        <line class="cls-8" x1="433.5" y1="224.5" x2="121.4" y2="44.4"/>
        <line class="cls-8" x1="435" y1="218.5" x2="125.9" y2="40.4"/>
        <line class="cls-8" x1="431.2" y1="229.4" x2="122.9" y2="51.4"/>
        <line class="cls-8" x1="429.7" y1="235.4" x2="121.4" y2="57.4"/>
        <polygon class="cls-8" points="336.7 188.5 245.3 135.8 259.3 111.3 349.8 163.8 336.7 188.5"/>
        <path class="cls-4" d="M299.8,121.9s9.8-19,45.3.8c10.4,5.8,46.9,27.1,58.2,9.6,5.6-8.6,12.5-20.5-15.5-34.5-33.6-16.8-80-39.3-80-39.3"/>
        <line class="cls-9" x1="75.8" y1="344.8" x2="173.3" y2="398.8"/>
        <line class="cls-4" x1="15.6" y1="233.2" x2="241.3" y2="364.3"/>
        <line class="cls-9" x1="127.8" y1="391.3" x2="219.3" y2="248.8"/>
        <ellipse class="cls-8" cx="135.8" cy="378" rx="7.4" ry="10.7" transform="translate(-261.8 321) rotate(-62.1)"/>
        <polygon class="cls-8" points="86.3 308.9 86.3 293 91.5 288 97.5 291.3 97.7 307.7 93.1 313.1 86.3 308.9"/>
        <line class="cls-2" x1="226.3" y1="261.8" x2="226.8" y2="371.8"/>
        <path class="cls-6" d="M372,49.8s-100.7,112.9-138.2,208c-.1.3-16-9.8-16-9.8,46-116.7,136-211.2,136-211.2"/>
        <path class="cls-10" d="M370.3,40.2s-94.7,96.3-142.5,211.6c-.1.3-13.5-7.3-13.5-7.3,46-118,143.3-215.3,143.3-215.3"/>
        <path class="cls-1" d="M463,90c-1.6,1.2-102.1,71.7-28.8,154.8.1.2-8.4,11.4-8.4,11.4-86.4-88,26.7-174.7,26.7-174.7"/>
        <g>
          <path class="cls-2" d="M426.8,256.2c-86.3-88,26.7-174.7,26.7-174.7"/>
          <path class="cls-2" d="M460.9,91.8c-1.6,1.2-99.9,70.6-27.6,152.4"/>
        </g>
        <polyline class="cls-5" points="86.3 293 92.5 296.5 97.5 291.3"/>
        <line class="cls-5" x1="93.1" y1="312.7" x2="92.6" y2="296.5"/>
        <polygon class="cls-8" points="105.3 302.4 105.3 286.5 110.5 281.5 116.5 284.8 116.7 301.2 112.1 306.6 105.3 302.4"/>
        <polyline class="cls-5" points="105.3 286.5 111.5 290 116.5 284.8"/>
        <line class="cls-5" x1="112.1" y1="306.2" x2="111.6" y2="290"/>
        <polygon class="cls-8" points="94.8 321.9 94.8 306 100 301 106 304.3 106.2 320.7 101.6 326.1 94.8 321.9"/>
        <polyline class="cls-5" points="94.8 306 101 309.5 106 304.3"/>
        <line class="cls-5" x1="101.6" y1="325.7" x2="101.1" y2="309.5"/>
        <g>
          <path class="cls-11" d="M129.9,331c0-.6-1.1-1.2-2.4-1.2s-2.4.6-2.4,1.2-3.1,6.6-3.1,6.6-1.1-6.5-1.1-6.7-1-1.1-2.3-1.1-2.2.5-2.2,1.1,2.7,9.7,2.7,9.7l-3,10.5s-1,1.5,1.3,2.2,2.7-.7,2.7-.7l3-11S129.9,331.2,129.9,331Z"/>
          <path class="cls-5" d="M120.8,330.5c0,.8-1,1.5-2.2,1.5s-2.1-.7-2.1-1.5"/>
          <path class="cls-5" d="M129.7,330.6c0,.8-1,1.5-2.2,1.5s-2.1-.7-2.1-1.5"/>
          <path class="cls-5" d="M129,332.3c0,.8-1,1.5-2.2,1.5s-2.2-.7-2.2-1.5"/>
          <path class="cls-5" d="M121,332c0,.8-1,1.5-2.2,1.5s-2.2-.7-2.2-1.5"/>
          <ellipse class="cls-12" cx="126.9" cy="350.1" rx="1.6" ry="1.1" transform="translate(-80.1 40.5) rotate(-13.8)"/>
          <path class="cls-5" d="M119.2,333.4s3.7,19.1,8.1,17.9-.1-17.5-.1-17.5"/>
        </g>
        <line class="cls-2" x1="230.3" y1="353.3" x2="210.8" y2="364.3"/>
        <circle class="cls-8" cx="225.8" cy="355.8" r="7.6"/>
        <circle class="cls-8" cx="225.4" cy="259" r="10.7"/>
        <rect class="cls-8" x="2.5" y="235.8" width="24" height="14.9" rx="7.5" ry="7.5" transform="translate(-203.4 134.2) rotate(-60)"/>
        <path class="cls-13" d="M12.3,251.5a4.3,4.3,0,0,1-2.2-.6h0a4.2,4.2,0,0,1-1.5-5.8l4.5-7.9a4.2,4.2,0,0,1,3.7-2.2,3.7,3.7,0,0,1,2.1.6H19a4.2,4.2,0,0,1,1.5,5.8L16,249.3A4.5,4.5,0,0,1,12.3,251.5Z"/>
        <polygon class="cls-1" points="180.3 319.3 169 311.8 203.5 261.1 211.8 266.8 180.3 319.3"/>
        <circle class="cls-14" cx="225.8" cy="355.8" r="2.6"/>
        <circle class="cls-14" cx="313.8" cy="131.3" r="2.6"/>
        <circle class="cls-14" cx="455.6" cy="185.5" r="2.6"/>
        <circle class="cls-15" cx="130.1" cy="129.1" r="118.1"/>
        <path class="cls-16" d="M29.3,183.7s24.1-37.7,36-55.4c0,0,6.6-9.4,13.5-4.9l46.8-65.9,66.7,36.8,10,4.6L117.4,214.3,54.8,176.8l-4.7,7.3L44,192.8Z"/>
        <path class="cls-17" d="M48.3,193.6l85.8,49.3L237.8,79.6s10.8,22.4,10.5,44L177.5,237.8s-46.5,19.3-85.4,4.1c0,0-46.8-13.5-69.6-64.1Z"/>
        <line class="cls-18" x1="153" y1="244.8" x2="244.3" y2="100.3"/>
        <line class="cls-18" x1="40" y1="205.5" x2="101.3" y2="241.3"/>
        <circle class="cls-19" cx="130.1" cy="129.1" r="118.1"/>
        <g>
          <line class="cls-4" x1="164.7" y1="105.1" x2="206.2" y2="126.5"/>
          <polygon class="cls-17" points="166.3 112.8 167.7 112.3 165.2 105.4 172.4 103.4 172 101.9 163.3 104.3 166.3 112.8"/>
        </g>
        <g>
          <polyline class="cls-20" points="121.5 146.9 135.6 154.4 140.3 146.8"/>
          <polygon class="cls-21" points="123 154.6 124.4 154.1 122 147.1 129.1 145.3 128.7 143.8 120 146.1 123 154.6"/>
        </g>
        <polygon class="cls-22" points="106 22.3 106 15.6 115.2 2.5 226.5 70.7 226.5 77.4 200.6 119.1 200.5 115 195.8 123 195.8 127.1 136.2 221.7 118.3 226.1 50.1 184.1 49.3 178.1 58.9 165 121.5 201.1 202.4 79.8 106 22.3"/>
        <polyline class="cls-5" points="106.4 15.6 206.2 74.5 202.6 80"/>
        <polyline class="cls-5" points="49.3 178.1 117.1 218.3 135 214.4 226.5 70.7"/>
        <line class="cls-5" x1="118.3" y1="226.1" x2="117.1" y2="218.4"/>
        <polygon class="cls-23" points="106.2 127.3 105.8 119.9 134.5 74.8 141.9 73.8 159 83 157 90.8 148.4 102.5 157 103.2 160 109 155.2 113.2 148.5 116 142.9 113 125.9 139.1 118.8 140.7 117.7 138.4 110.5 134.6 110.4 130 106.2 127.3"/>
        <line class="cls-5" x1="136.2" y1="221.7" x2="135" y2="214.4"/>
        <polygon class="cls-24" points="97.7 127.8 97.3 118.4 128.8 69.7 149.8 82 149.4 91.1 146.3 96.2 151.8 99.1 151.8 108.5 147.9 115 138 109.3 118.5 139.5 111.2 135.8 109.2 138.9 102 135.1 101.7 130.5 97.7 127.8"/>
        <polygon class="cls-22" points="86.2 130 101.8 139.8 101.8 146.1 96.8 155.1 102.6 158.8 105.5 154.3 125.6 165.7 125.9 171.5 116.6 188.2 71.7 162 70.6 155.4 86.2 130"/>
        <polyline class="cls-5" points="70.6 155.4 115.7 181.5 125.6 165.7"/>
        <line class="cls-5" x1="116.6" y1="188.2" x2="115.8" y2="181.3"/>
        <polyline class="cls-5" points="101.8 139.8 93.4 153.3 96.7 155.4"/>
        <polygon class="cls-17" points="198.1 119.1 200.6 120 200.8 114.5 198.1 119.1"/>
        <polygon class="cls-15" points="199.1 118.9 198.2 120.6 200.2 121.8 203.8 121 199.1 118.9"/>
        <polygon class="cls-25" points="97.9 122 117.9 132.5 149 85.6 129.5 74.6 97.9 122"/>
        <polygon class="cls-26" points="98.3 121.9 117.6 132.4 148.8 85.6 129.7 74.6 98.3 121.9"/>
        <polygon class="cls-26" points="98.9 125.2 118 135.5 148.7 89 130.1 79.3 98.9 125.2"/>
        <polyline class="cls-5" points="97.3 118.4 117.8 130.2 137.3 101.1 147.8 106.5 151.8 99.6"/>
        <polyline class="cls-5" points="149.5 82 141.5 94.2 150.4 99.2"/>
        <line class="cls-5" x1="137.4" y1="101.1" x2="137.9" y2="109.5"/>
        <line class="cls-5" x1="117.8" y1="130.1" x2="118.4" y2="139.5"/>
        <polyline class="cls-5" points="102.1 130.5 104 128.2 111 131.8 111.1 135.2 109.2 138.9 109.2 134.5 102 130.8"/>
        <line class="cls-5" x1="147.7" y1="106.3" x2="147.8" y2="114.5"/>
        <line class="cls-5" x1="109" y1="134.6" x2="111.1" y2="131.8"/>
        <g>
          <path class="cls-17" d="M27.2,246l-2.9,5,2.4,1.4-.7.9-3.4-2,3.5-6Z"/>
          <path class="cls-17" d="M31.7,254l-2.9-1.7a1.9,1.9,0,0,0-.2,1.2,1.3,1.3,0,0,0,.6.7l.6.3h.8v.9a3.1,3.1,0,0,1-2.1-.4,2.1,2.1,0,0,1-1.2-1.6,3.4,3.4,0,0,1,.4-2.1,5.2,5.2,0,0,1,1-1.1,2.8,2.8,0,0,1,1.2-.4,1.5,1.5,0,0,1,1.3.3,2.1,2.1,0,0,1,1.1,1.5,3.1,3.1,0,0,1-.4,2C31.9,253.6,31.8,253.8,31.7,254Zm-.6-1.4c.4-.8.4-1.4-.2-1.7a.8.8,0,0,0-.8-.1,2.2,2.2,0,0,0-.9.8l1.8,1.1Z"/>
          <path class="cls-17" d="M34.4,257.9h-.6l-.7-.3a1.9,1.9,0,0,1-.8-1,1.7,1.7,0,0,1,.3-1.3l1.4-2.4-.7-.4.4-.8.8.4.5-1,1.2.5-.6,1.1,1,.7-.5.7-1-.6-1.4,2.4a.7.7,0,0,0-.1.6c0,.1.1.2.2.3l.7.2Z"/>
          <path class="cls-17" d="M40.7,255.7l-.5.8-3.9,1.7,2.3,1.3-.6.8-3.4-2,.4-.8,3.9-1.6-2-1.2.5-.9Z"/>
          <path class="cls-17" d="M42.9,257l-2.7,4.5-1.1-.6,2.6-4.6Zm1.1-2.2a.5.5,0,0,1-.1.6l-.4.4h-.6a.7.7,0,0,1-.4-.5.5.5,0,0,1,.1-.6l.4-.4h.6C43.8,254.5,44,254.6,44,254.8Z"/>
          <path class="cls-17" d="M48.1,260.4l-1.4-.6c.2.3.4.5.4.8a1.7,1.7,0,0,1-.9,1.5l-1,.2-1.1-.4-.5-.4-.3.2c-.2.2,0,.5.3.7l.7.4a1.9,1.9,0,0,1,.8.7,1.1,1.1,0,0,1,.3.8,1,1,0,0,1-.2.7,1.2,1.2,0,0,1-1.2.8,4.1,4.1,0,0,1-1.9-.6,3.5,3.5,0,0,1-1.1-.9,1.2,1.2,0,0,1-.4-.9,2.3,2.3,0,0,1,.3-.9l.9.6c0,.2-.1.3-.1.4a.5.5,0,0,0,.2.4l.7.5a1.6,1.6,0,0,0,1,.4.5.5,0,0,0,.5-.3.4.4,0,0,0,0-.5.8.8,0,0,0-.5-.5l-.7-.4c-.4-.3-.7-.5-.8-.8a1.4,1.4,0,0,1,0-.9l.4-.3.7-.2a1.6,1.6,0,0,1-.3-.9,1.5,1.5,0,0,1,.2-.9,2.3,2.3,0,0,1,.7-.7l1.1-.2,1.1.4a3.4,3.4,0,0,0,1.2.6h1.2Zm-3.3-1.1c-.2,0-.4.2-.6.5a1.1,1.1,0,0,0-.1.8.7.7,0,0,0,.4.5,1.2,1.2,0,0,0,.8.2,1.7,1.7,0,0,0,.6-.6c.3-.6.2-1-.4-1.3A.6.6,0,0,0,44.8,259.3Z"/>
          <path class="cls-17" d="M51.8,262.1l-.8,1-.4-.3a.8.8,0,0,0-.8-.1l-.9.7-1.4,2.4-1.1-.6,2.7-4.6.9.6-.4.9.9-.5a1.5,1.5,0,0,1,.9.2Z"/>
          <path class="cls-17" d="M53.6,269.4l-.9-.6.3-.7a1.9,1.9,0,0,1-1,.3,1.6,1.6,0,0,1-.9-.3,1.8,1.8,0,0,1-.7-.9,1.7,1.7,0,0,1,.3-1.3l1.9-3.3,1.1.7-1.8,3.1c-.2.3-.3.5-.2.7a.5.5,0,0,0,.3.4,1.5,1.5,0,0,0,1.3-.1l1.9-3.3,1.1.7Z"/>
          <path class="cls-17" d="M61,267.8a1.7,1.7,0,0,1-.3,1.3l-1.9,3.3-1.1-.7,1.8-3.1c.2-.3.3-.5.2-.7a.5.5,0,0,0-.3-.4h-.6l-.8.3-1.8,3.1-1.1-.6,2.6-4.6,1,.6-.3.6a2.5,2.5,0,0,1,1.9.1A1.8,1.8,0,0,1,61,267.8Z"/>
          <path class="cls-17" d="M67.8,269l-3.7,6.4-1-.5.3-.7a2.1,2.1,0,0,1-1.8,0,1.9,1.9,0,0,1-.9-1.4,4.1,4.1,0,0,1,.6-2,2.7,2.7,0,0,1,1-1.1,1.6,1.6,0,0,1,1.1-.5,1.7,1.7,0,0,1,1.2.2,2,2,0,0,1,.8,1.2l1.4-2.3ZM63,273.7l.7-.2,1.2-2.1c0-.2-.1-.4-.1-.6l-.5-.4a.7.7,0,0,0-.9,0,3,3,0,0,0-.9,1,2.6,2.6,0,0,0-.5,1.4.8.8,0,0,0,.4.7A.7.7,0,0,0,63,273.7Z"/>
        </g>
        <g>
          <path class="cls-21" d="M181.3,311.5l-2.7-1.7-1.4,2.1,2.7,1.8-.8,1.2-6.1-4,.8-1.1,2.4,1.5,1.4-2.1-2.4-1.6.7-1.2,6.1,3.9Z"/>
          <path class="cls-21" d="M184.3,305l.4-.2.6.7a1.7,1.7,0,0,1-.6.6h-.8a2,2,0,0,1,.2,1,3.6,3.6,0,0,1-.4.9,1.5,1.5,0,0,1-1.1.8,2.1,2.1,0,0,1-1.3-.2,1.7,1.7,0,0,1-.8-1.3,3.8,3.8,0,0,1,.6-1.9l.4-.5-.3-.2c-.3-.2-.5-.3-.7-.2s-.4.2-.6.5a4.5,4.5,0,0,0-.6,1.4l-.9-.2a5.4,5.4,0,0,1,.7-1.9c.8-1.2,1.7-1.5,2.8-.8l2,1.3Zm-1.2.9-.9-.6-.3.5c-.5.7-.5,1.2.1,1.6a.7.7,0,0,0,.6.1.5.5,0,0,0,.5-.3A1,1,0,0,0,183.1,305.9Z"/>
          <path class="cls-21" d="M183,298.5l.9.9-.3.4a.8.8,0,0,0-.1.8,3.7,3.7,0,0,0,.6,1l2.5,1.6-.7,1.1-4.7-3,.7-1,1,.5a1.4,1.4,0,0,1-.5-1,1.5,1.5,0,0,1,.2-.9A.8.8,0,0,1,183,298.5Z"/>
          <path class="cls-21" d="M183.9,293l6.6,4.3-.7,1-.6-.4a1.6,1.6,0,0,1,.1,1,1.1,1.1,0,0,1-.3.8,1.6,1.6,0,0,1-1.5.9,3.3,3.3,0,0,1-2.1-.7,3.6,3.6,0,0,1-1.1-1,3.1,3.1,0,0,1-.5-1.2,1.6,1.6,0,0,1,.4-1.2,1.8,1.8,0,0,1,1.2-.9l-2.3-1.5Zm4.7,5.3a2.4,2.4,0,0,0-.2-.8l-2.1-1.3h-.7l-.4.4a1.2,1.2,0,0,0-.1,1,2.7,2.7,0,0,0,1.1,1,2.7,2.7,0,0,0,1.4.6.9.9,0,0,0,.8-.4A1.4,1.4,0,0,0,188.6,298.3Z"/>
          <path class="cls-21" d="M189,290.1l.4.9a2,2,0,0,0-1.1.9.7.7,0,0,0-.2.6.5.5,0,0,0,.2.4h.7l.6-.5a3.8,3.8,0,0,1,1.3-.8,1.5,1.5,0,0,1,1.1.2,1.7,1.7,0,0,1,.8,1.3,2.7,2.7,0,0,1-.6,1.6,3.9,3.9,0,0,1-.8,1l-1,.5-.3-1a2.2,2.2,0,0,0,1.3-1,1,1,0,0,0,.2-.7c0-.2-.1-.3-.2-.5H191l-.4.2-.7.5a2.5,2.5,0,0,1-1.2.7,1.5,1.5,0,0,1-1.1-.2,1.8,1.8,0,0,1-.5-.7,1.4,1.4,0,0,1-.1-.9,2.5,2.5,0,0,1,.4-1.1A4,4,0,0,1,189,290.1Z"/>
          <path class="cls-21" d="M195.4,289a2.2,2.2,0,0,1-.1.8c0,.2-.2.4-.3.6s-.6.8-1.1.8a1.7,1.7,0,0,1-1.3-.3l-2.5-1.6-.5.7-.8-.5.5-.7-1-.7.6-1.2,1.1.7.7-1.1.8.7-.7,1,2.5,1.5a.7.7,0,0,0,.6.2q.2,0,.3-.3c.2-.1.2-.3.2-.6Z"/>
          <path class="cls-21" d="M193,282.8l1,.9-.3.4a.8.8,0,0,0-.1.8,2.7,2.7,0,0,0,.6,1l2.5,1.6-.7,1.1-4.7-3,.6-.9,1,.4a1.8,1.8,0,0,1-.4-.9.9.9,0,0,1,.2-.9Z"/>
          <path class="cls-21" d="M199.4,281.5l.4-.2.6.8-.6.5H199a1.5,1.5,0,0,1,.2.9,3.6,3.6,0,0,1-.4.9,1.6,1.6,0,0,1-1.1.9,1.7,1.7,0,0,1-1.3-.3,1.6,1.6,0,0,1-.8-1.3,3.5,3.5,0,0,1,.6-1.8l.4-.6-.3-.2c-.3-.2-.5-.3-.7-.2a1.1,1.1,0,0,0-.6.6,3.7,3.7,0,0,0-.6,1.4l-.9-.3a6.2,6.2,0,0,1,.7-1.9c.8-1.2,1.7-1.4,2.8-.7l2,1.2Zm-1.2.9-.9-.6-.3.5c-.5.7-.5,1.2.1,1.6l.6.2a1,1,0,0,0,.5-.4A1,1,0,0,0,198.2,282.4Z"/>
          <path class="cls-21" d="M198.7,275l.4.9a3.5,3.5,0,0,0-1.1.9,1,1,0,0,0-.2.6c0,.2,0,.4.2.5s.2.1.3,0h.4l.6-.5a3.5,3.5,0,0,1,1.2-.8,1.4,1.4,0,0,1,1.2.3,1.3,1.3,0,0,1,.7,1.2,2.3,2.3,0,0,1-.5,1.7,3.1,3.1,0,0,1-1.8,1.4l-.3-1a1.7,1.7,0,0,0,1.5-1.6.5.5,0,0,0-.3-.5c-.1-.1-.2-.2-.3-.1h-.4l-.7.5a1.9,1.9,0,0,1-1.2.7,1.4,1.4,0,0,1-1.1-.2c-.3-.1-.4-.4-.6-.6a1.7,1.7,0,0,1,0-1,3,3,0,0,1,.4-1.1A3.4,3.4,0,0,1,198.7,275Z"/>
          <path class="cls-21" d="M201.3,271l.4.9a2,2,0,0,0-1.1.9.7.7,0,0,0-.2.6c0,.2,0,.3.2.4h.3l.4-.2.6-.4a2.5,2.5,0,0,1,1.2-.8,1.7,1.7,0,0,1,1.2.2,1.4,1.4,0,0,1,.7,1.3,2,2,0,0,1-.5,1.6,3.9,3.9,0,0,1-.8,1l-1,.5-.3-1a2.2,2.2,0,0,0,1.3-1,1.9,1.9,0,0,0,.2-.7.5.5,0,0,0-.3-.5h-.3l-.4.2-.7.5a2.5,2.5,0,0,1-1.2.7,1.4,1.4,0,0,1-1.1-.2,2,2,0,0,1-.6-.7,1.4,1.4,0,0,1,0-.9,2.5,2.5,0,0,1,.4-1.1A2.9,2.9,0,0,1,201.3,271Z"/>
          <path class="cls-21" d="M206.7,267.7l-1.9,2.9a2.1,2.1,0,0,0,1.2.3,1.6,1.6,0,0,0,.8-.6l.3-.7v-.8h1a3.6,3.6,0,0,1-.5,2.1,2.7,2.7,0,0,1-1.7,1.2,3.1,3.1,0,0,1-2.2-.5,3.8,3.8,0,0,1-1.1-1.1,2.9,2.9,0,0,1-.5-1.3,3.3,3.3,0,0,1,.4-1.3,2.4,2.4,0,0,1,1.6-1.1,3.3,3.3,0,0,1,2.1.5Zm-1.5.6c-.8-.6-1.4-.5-1.8.1a.8.8,0,0,0-.2.8,2.2,2.2,0,0,0,.8.9l1.2-1.8Z"/>
        </g>
        <g>
          <path class="cls-1" d="M170.7,207.5l-2.6-1.6-1.3,2.1,2.7,1.6-.7,1.1-5.9-3.6.7-1.1,2.3,1.4,1.3-2.1-2.4-1.4.7-1.1,5.9,3.5Z"/>
          <path class="cls-1" d="M173.6,201l.3-.2.6.7-.5.5h-.7a2.8,2.8,0,0,1,.1.9,1.1,1.1,0,0,1-.3.8,1.7,1.7,0,0,1-1,.9,2.1,2.1,0,0,1-1.3-.2,1.7,1.7,0,0,1-.8-1.3,3.2,3.2,0,0,1,.6-1.7l.3-.6h-.2a.9.9,0,0,0-.8-.2.8.8,0,0,0-.5.5,4.6,4.6,0,0,0-.5,1.4l-.9-.2a6,6,0,0,1,.6-1.9c.7-1.1,1.6-1.4,2.6-.8l1.9,1.2Zm-1.1.9-.9-.6-.3.5c-.5.7-.4,1.2.1,1.5a.7.7,0,0,0,.6.1.5.5,0,0,0,.5-.3A1.3,1.3,0,0,0,172.5,201.9Z"/>
          <path class="cls-1" d="M172.3,194.6l.9.8-.3.4a1.1,1.1,0,0,0-.1.8,1.8,1.8,0,0,0,.7.9l2.4,1.5-.7,1.1-4.5-2.8.6-.9.9.4a1.8,1.8,0,0,1-.4-.9,1.4,1.4,0,0,1,.1-.9C172,194.9,172.1,194.7,172.3,194.6Z"/>
          <path class="cls-1" d="M173.1,189.2l6.4,3.8-.6,1-.6-.3a2.9,2.9,0,0,1,.2.9,1.1,1.1,0,0,1-.3.8,1.5,1.5,0,0,1-1.4.9,2.7,2.7,0,0,1-2-.6,2.7,2.7,0,0,1-1.1-1,1.6,1.6,0,0,1-.5-1.1,2.7,2.7,0,0,1,.3-1.2,1.5,1.5,0,0,1,1.2-.8l-2.3-1.4Zm4.6,4.8a1.1,1.1,0,0,0-.2-.7l-2-1.2a.8.8,0,0,0-.6.2c-.2,0-.3.2-.4.4a.9.9,0,0,0-.1.9,2.6,2.6,0,0,0,1.1.9,2.4,2.4,0,0,0,1.3.6,1.4,1.4,0,0,0,.8-.5A1.3,1.3,0,0,0,177.7,194Z"/>
          <path class="cls-1" d="M178.1,186l.4.9a2,2,0,0,0-1.1.9,1.4,1.4,0,0,0-.2.6l.2.3h.4l.3-.2c.2,0,.3-.2.6-.4a2.8,2.8,0,0,1,1.2-.8,1.5,1.5,0,0,1,1.8,1.4,3.4,3.4,0,0,1-.4,1.6l-.8.9-1,.5-.3-.9a2,2,0,0,0,1.2-1,1,1,0,0,0,.2-.7.5.5,0,0,0-.2-.4h-.8l-.6.6-1.1.7a2.2,2.2,0,0,1-1.1-.2,1.8,1.8,0,0,1-.5-.7,1.3,1.3,0,0,1-.1-.9,2.6,2.6,0,0,1,.4-1A2.8,2.8,0,0,1,178.1,186Z"/>
          <path class="cls-1" d="M184.3,184.6a1.5,1.5,0,0,1-.1.7l-.3.7a1.9,1.9,0,0,1-1,.8,2.2,2.2,0,0,1-1.3-.3l-2.4-1.5-.4.7-.8-.5.4-.7-1-.6.6-1.1,1.1.6.6-1,.7.6-.5.9,2.3,1.4.6.2a.5.5,0,0,0,.4-.3c.1-.1.1-.3.1-.6Z"/>
          <path class="cls-1" d="M182,178.6l.9.8-.3.4a.8.8,0,0,0-.1.8,3.6,3.6,0,0,0,.7.9l2.4,1.4-.7,1.1-4.5-2.7.6-1,.9.5a1.8,1.8,0,0,1-.4-.9,1.3,1.3,0,0,1,.1-.9Z"/>
          <path class="cls-1" d="M188.1,176.9h.4l.6.6-.6.6h-.7a2.9,2.9,0,0,1,.2.9,3.6,3.6,0,0,1-.4.9,1.5,1.5,0,0,1-2.2.6,1.4,1.4,0,0,1-.8-1.2,2.8,2.8,0,0,1,.5-1.8l.3-.5-.2-.2c-.3-.1-.5-.2-.7-.1s-.4.2-.6.5a3.9,3.9,0,0,0-.5,1.3l-.9-.2a5.6,5.6,0,0,1,.7-1.8c.7-1.2,1.5-1.4,2.6-.8l1.9,1.2Zm-1.1.9-.9-.5-.3.4c-.4.7-.4,1.2.2,1.6h.6l.4-.4C187.3,178.7,187.2,178.3,187,177.8Z"/>
          <path class="cls-1" d="M187.4,170.6l.4.8a1.8,1.8,0,0,0-1,.9.7.7,0,0,0-.2.6.5.5,0,0,0,.2.4h.3l.4-.2.5-.5a4.2,4.2,0,0,1,1.2-.8,1.5,1.5,0,0,1,1.1.2,1.3,1.3,0,0,1,.7,1.2,2.4,2.4,0,0,1-.4,1.6,2.4,2.4,0,0,1-.8.9,2,2,0,0,1-.9.5l-.3-.9a2.7,2.7,0,0,0,1.2-.9,2.5,2.5,0,0,0,.2-.7.5.5,0,0,0-.3-.5h-.3a.5.5,0,0,0-.4.2l-.6.5a2.5,2.5,0,0,1-1.2.7,1.2,1.2,0,0,1-1-.2.9.9,0,0,1-.6-.6,2.8,2.8,0,0,1-.1-.9,4.2,4.2,0,0,1,.4-1A3.1,3.1,0,0,1,187.4,170.6Z"/>
          <path class="cls-1" d="M189.9,166.5l.4.8a1.8,1.8,0,0,0-1,.9.7.7,0,0,0-.2.6c0,.1.1.3.2.3h.7l.5-.5a2.8,2.8,0,0,1,1.2-.8,1.5,1.5,0,0,1,1.1.2,1.3,1.3,0,0,1,.7,1.2,2.5,2.5,0,0,1-.4,1.6,2.4,2.4,0,0,1-.8.9l-.9.5-.3-.9a2.9,2.9,0,0,0,1.2-1,1.9,1.9,0,0,0,.2-.7c0-.2-.1-.3-.3-.4h-.7a1.7,1.7,0,0,0-.6.6,2.5,2.5,0,0,1-1.2.7,1.8,1.8,0,0,1-1-.2,1.7,1.7,0,0,1-.6-.6,2.8,2.8,0,0,1-.1-.9,4.9,4.9,0,0,1,.4-1.1A2.9,2.9,0,0,1,189.9,166.5Z"/>
          <path class="cls-1" d="M195,162.9l-1.7,2.9a1.9,1.9,0,0,0,1.2.2,1.3,1.3,0,0,0,.7-.6l.3-.6V164h.9a3,3,0,0,1-.4,2.1,2.1,2.1,0,0,1-1.6,1.2,3,3,0,0,1-2.1-.5,5.2,5.2,0,0,1-1.1-1,2.8,2.8,0,0,1-.4-1.2,3.5,3.5,0,0,1,.3-1.3,2.3,2.3,0,0,1,1.5-1.1,3.1,3.1,0,0,1,2,.5Zm-1.4.6a1.1,1.1,0,0,0-1.7.2,1.1,1.1,0,0,0-.1.8,1.5,1.5,0,0,0,.8.8l1.1-1.7Z"/>
        </g>
        <g>
          <path class="cls-1" d="M62.5,209.8a2,2,0,0,1-1.7,2.1,4,4,0,0,1-2.1-.7L57,210.1l3.5-5.9,1.6.9q2.4,1.5,1.5,3a1.3,1.3,0,0,1-.8.7,1.6,1.6,0,0,1-1-.1A4.1,4.1,0,0,1,62.5,209.8Zm-2.2.9a.8.8,0,0,0,.8-.5,1,1,0,0,0,.1-.9,1.2,1.2,0,0,0-.7-.7l-.8-.5-1.1,1.8.7.4A1.6,1.6,0,0,0,60.3,210.7Zm.9-5-1,1.6.7.4a1.6,1.6,0,0,0,.9.3,1.3,1.3,0,0,0,.6-.5.8.8,0,0,0,.1-.8,3,3,0,0,0-.8-.7Z"/>
          <path class="cls-1" d="M65.9,215.5l-.9-.6.3-.6-.9.2a1.9,1.9,0,0,1-1-.3,1.5,1.5,0,0,1-.7-.9A3.5,3.5,0,0,1,63,212l2-3.2,1.1.6-1.9,3.2a.7.7,0,0,0-.2.6.5.5,0,0,0,.3.4,1.2,1.2,0,0,0,1.3-.1l2-3.2,1.1.7Z"/>
          <path class="cls-1" d="M67.7,216.4a1.5,1.5,0,0,1,.2-1.1l3.3-5.3,1.1.6L69.1,216c-.2.2-.1.3,0,.4h.3l-.2,1-.8-.3A1.3,1.3,0,0,1,67.7,216.4Z"/>
          <path class="cls-1" d="M70.4,218a1.5,1.5,0,0,1,.2-1.1l3.2-5.3,1.2.6-3.3,5.4c-.1.2-.1.3.1.4l.3.2-.3.9-.8-.3C70.7,218.6,70.4,218.3,70.4,218Z"/>
          <path class="cls-1" d="M76.5,215.7l-2.7,4.6-1.1-.7,2.7-4.5Zm1.2-2.1a.7.7,0,0,1-.1.6,1,1,0,0,1-.5.4.7.7,0,0,1-.6-.2.8.8,0,0,1-.4-.4,1.1,1.1,0,0,1,.1-.6l.5-.4h.6A.7.7,0,0,1,77.7,213.6Z"/>
          <path class="cls-1" d="M81.2,218.9a2.7,2.7,0,0,1-.3,1.2l-2,3.3-1.1-.7,1.9-3.1.2-.6c0-.2-.1-.3-.3-.5H79a1.3,1.3,0,0,0-.8.3l-1.9,3.1-1.1-.7,2.7-4.5,1,.6-.3.6a2.2,2.2,0,0,1,1.8.1A1.9,1.9,0,0,1,81.2,218.9Z"/>
          <path class="cls-1" d="M86.8,222.3l-1.4-.6a2,2,0,0,1,.4.8,1.9,1.9,0,0,1-.2.8l-.7.7-1,.2-1.1-.4-.5-.4-.4.2c-.1.2,0,.4.4.6l.7.5a2.2,2.2,0,0,1,.7.6,1.6,1.6,0,0,1,.3.8.8.8,0,0,1-.2.8,1.4,1.4,0,0,1-1.2.8,3.4,3.4,0,0,1-1.9-.7,3.5,3.5,0,0,1-1.1-.9,1.2,1.2,0,0,1-.4-.8,2.2,2.2,0,0,1,.3-1l1,.6a.9.9,0,0,0-.1.5c0,.1,0,.2.2.4l.6.5,1,.3a.5.5,0,0,0,.5-.3.4.4,0,0,0,0-.5c0-.1-.2-.3-.4-.5l-.7-.4a1.3,1.3,0,0,1-.8-.8.8.8,0,0,1,0-.8.8.8,0,0,1,.4-.4h.6a3.7,3.7,0,0,1-.2-.9,1.5,1.5,0,0,1,.2-.9,1.8,1.8,0,0,1,.8-.7,1.6,1.6,0,0,1,1-.2l1.1.4a4.5,4.5,0,0,0,1.2.6l1.2.2Zm-3.3-1.2-.6.5a1.2,1.2,0,0,0-.1.8.5.5,0,0,0,.4.6,1.1,1.1,0,0,0,.7.2.9.9,0,0,0,.6-.6c.4-.6.3-1-.3-1.3A.8.8,0,0,0,83.5,221.1Z"/>
          <path class="cls-1" d="M89.7,227.3l-2.8-1.7a1.2,1.2,0,0,0-.2,1.1.9.9,0,0,0,.6.8l.6.2a.8.8,0,0,0,.7,0v.9a2.8,2.8,0,0,1-2-.4,2.6,2.6,0,0,1-1.3-1.6,3.1,3.1,0,0,1,.5-2,2.7,2.7,0,0,1,1-1.1,3.1,3.1,0,0,1,1.2-.5,2,2,0,0,1,1.3.4,2.1,2.1,0,0,1,1.1,1.5,2.7,2.7,0,0,1-.5,2Zm-.6-1.4c.5-.8.4-1.4-.1-1.7a.8.8,0,0,0-.8-.1,1.6,1.6,0,0,0-.9.8l1.8,1Z"/>
          <path class="cls-1" d="M95.2,226.9l-.9,1-.3-.3a1,1,0,0,0-.9-.1,2.3,2.3,0,0,0-.8.7l-1.5,2.4-1.1-.7,2.7-4.5,1,.5-.5,1a3.1,3.1,0,0,1,1-.5,1.1,1.1,0,0,1,.8.2Z"/>
          <path class="cls-1" d="M98.6,229.7l-.8.4a2,2,0,0,0-.9-1.1l-.6-.2-.4.2c0,.1-.1.2-.1.3l.2.4.5.6a5.9,5.9,0,0,1,.8,1.1,1.7,1.7,0,0,1-.2,1.2,1.5,1.5,0,0,1-1.2.7,2.5,2.5,0,0,1-1.6-.5,2.2,2.2,0,0,1-.9-.7,1.9,1.9,0,0,1-.5-1l.9-.3a1.9,1.9,0,0,0,.9,1.2,1.1,1.1,0,0,0,.7.2l.5-.2a.8.8,0,0,0,.1-.4l-.2-.4-.5-.6a2.8,2.8,0,0,1-.7-1.1,1.5,1.5,0,0,1,.2-1.1,1,1,0,0,1,.6-.5,1.4,1.4,0,0,1,.9-.1,2.1,2.1,0,0,1,1,.4A2.4,2.4,0,0,1,98.6,229.7Z"/>
          <path class="cls-1" d="M100,235.8h-.7l-.6-.3a1.5,1.5,0,0,1-.8-1,1.7,1.7,0,0,1,.3-1.3l1.4-2.4-.7-.4.5-.8.7.4.6-1,1.2.6-.7,1.1,1.1.6-.6.7-1-.5-1.4,2.3c-.1.3-.2.4-.2.6l.3.3.6.2Z"/>
          <path class="cls-1" d="M106.1,233.5l-.8,1-.4-.3a.8.8,0,0,0-.8-.1,1.8,1.8,0,0,0-.9.7l-1.5,2.4-1.1-.7,2.8-4.5.9.6-.4.9a2,2,0,0,1,.9-.5l.9.2Z"/>
          <path class="cls-1" d="M104.9,237.7a.5.5,0,0,1-.1.6.7.7,0,0,1-.5.4h-.6c-.2-.2-.3-.3-.3-.5s-.1-.5.1-.6.2-.4.4-.4a.8.8,0,0,1,.7.1A.5.5,0,0,1,104.9,237.7Z"/>
        </g>
        <g>
          <path class="cls-17" d="M249.2,242.8l1.5-2.7-2.2-1.2-1.5,2.7-1.1-.6,3.3-6,1.2.6L249,238l2.2,1.2,1.3-2.4,1.2.6-3.3,6.1Z"/>
          <path class="cls-17" d="M255.7,245.4l.2.3-.6.6a1,1,0,0,1-.6-.5,1.7,1.7,0,0,1-.1-.7l-.9.2-.9-.3a1.6,1.6,0,0,1-.8-1,1.3,1.3,0,0,1,.1-1.2,1.8,1.8,0,0,1,1.2-.9,2.8,2.8,0,0,1,1.8.5l.6.3v-.3a1.1,1.1,0,0,0,.2-.7l-.6-.6-1.4-.4.2-.9a6,6,0,0,1,1.9.6,1.8,1.8,0,0,1,.9,2.6l-1.1,1.9C255.8,245.1,255.7,245.2,255.7,245.4Zm-.9-1.1.5-1-.5-.2c-.7-.4-1.2-.3-1.5.2a1.3,1.3,0,0,0-.1.6c0,.2.2.3.4.5A1.3,1.3,0,0,0,254.8,244.3Z"/>
          <path class="cls-17" d="M261.9,243.7l-.7,1-.4-.3H260a1.8,1.8,0,0,0-.9.7l-1.4,2.4-1.1-.6,2.6-4.6.9.5-.4,1a2,2,0,0,1,.9-.5,1.3,1.3,0,0,1,.9.1Z"/>
          <path class="cls-17" d="M267.3,244.4l-3.6,6.5-1-.6.3-.6-.9.2-.8-.2a1.8,1.8,0,0,1-1-1.4,3.3,3.3,0,0,1,.6-2,2.7,2.7,0,0,1,.9-1.2,2.2,2.2,0,0,1,1.1-.5,1.7,1.7,0,0,1,1.2.2,2.7,2.7,0,0,1,.9,1.2l1.3-2.4Zm-4.6,4.7a.7.7,0,0,0,.6-.2l1.2-2.1a1.4,1.4,0,0,0-.2-.6c-.1-.1-.2-.3-.4-.4a1.4,1.4,0,0,0-.9,0,3.6,3.6,0,0,0-1,1.1,3,3,0,0,0-.4,1.4c0,.3.2.5.5.7Z"/>
          <path class="cls-17" d="M271.1,249.5a4.8,4.8,0,0,1-.6,2.1,3.1,3.1,0,0,1-.9,1.1,1.6,1.6,0,0,1-1.1.5,1.7,1.7,0,0,1-1.2-.2,1.5,1.5,0,0,1-.8-1.1l-1.2,2.1-1.2-.5,3.6-6.5,1,.5-.3.6a1.4,1.4,0,0,1,.9-.1,1.5,1.5,0,0,1,.9.2A1.7,1.7,0,0,1,271.1,249.5Zm-1.8,1.4a2.1,2.1,0,0,0,.5-1.3,1,1,0,0,0-.4-.8h-.7l-.6.3-1.2,2c.1.5.2.8.6,1S268.8,252,269.3,250.9Z"/>
          <path class="cls-17" d="M270.7,254.5a2.3,2.3,0,0,1,.2-1.1l3-5.4,1.2.5-3,5.5a.3.3,0,0,0,0,.5h.3l-.2.9-.8-.2A1.8,1.8,0,0,1,270.7,254.5Z"/>
          <path class="cls-17" d="M276.9,257.1l.2.3-.7.6-.5-.5a1.7,1.7,0,0,1-.1-.7l-.9.2-.9-.3a2.2,2.2,0,0,1-.9-1,1.7,1.7,0,0,1,.2-1.2,1.8,1.8,0,0,1,1.2-.9,2.8,2.8,0,0,1,1.8.5l.6.3v-.3a.6.6,0,0,0,.1-.7c0-.2-.2-.4-.5-.6l-1.4-.4.2-.9a4.8,4.8,0,0,1,1.8.6c1.2.7,1.5,1.5.9,2.6l-1,1.9C277,256.8,276.9,256.9,276.9,257.1ZM276,256l.5-1-.5-.2c-.7-.4-1.2-.3-1.5.2a.7.7,0,0,0-.1.6c0,.2.2.3.4.5A1.3,1.3,0,0,0,276,256Z"/>
          <path class="cls-17" d="M280.6,259.9h-.7l-.7-.2a1.9,1.9,0,0,1-.8-1,2.1,2.1,0,0,1,.2-1.3l1.4-2.5-.7-.4.4-.8.7.4.6-1,1.2.5-.6,1.2,1,.6-.5.7-1-.5-1.3,2.4-.2.5.3.4h.7Z"/>
          <path class="cls-17" d="M286.7,257.5l-.5.8-3.8,1.7,2.3,1.3-.6.8-3.5-1.9.4-.8,3.9-1.7-2-1.2.4-.9Z"/>
          <path class="cls-17" d="M286.7,262.1a1.3,1.3,0,0,1-.1.6,1,1,0,0,1-.5.4.7.7,0,0,1-.6-.1.8.8,0,0,1-.4-.4.8.8,0,0,1,.1-.7.8.8,0,0,1,.4-.4h.7A1,1,0,0,1,286.7,262.1Zm1.7-3.1a1.3,1.3,0,0,1-.1.6,1,1,0,0,1-.5.4.7.7,0,0,1-.6-.1.7.7,0,0,1-.4-.5,1.3,1.3,0,0,1,.1-.6,1,1,0,0,1,.5-.4h.6A1,1,0,0,1,288.4,259Z"/>
        </g>
        <g>
          <path class="cls-17" d="M155.2,367.9l.4-1.6-2-1.1-1.2,1.2-1.2-.7,5.3-4.9,1.4.8-1.5,7Zm-.9-3.4,1.5.8.9-3.3Z"/>
          <path class="cls-17" d="M157.5,369a1.3,1.3,0,0,1,.2-1l3.1-5.4,1.1.5-3.1,5.5c-.1.2,0,.3.1.4h.3l-.2,1c-.3-.1-.6-.1-.8-.3A1.3,1.3,0,0,1,157.5,369Z"/>
          <path class="cls-17" d="M165.8,368.5a3.7,3.7,0,0,1-1.5,3.2,1.6,1.6,0,0,1-1.1.5,1.4,1.4,0,0,1-1.1-.2,1,1,0,0,1-.6-.5,1.3,1.3,0,0,1-.3-.8l-.4.4-.9-.5,3.6-6.5,1.2.5-1.4,2.5a1.1,1.1,0,0,1,.8-.1,1.1,1.1,0,0,1,.8.2A1.4,1.4,0,0,1,165.8,368.5Zm-2.6,2.5a2.6,2.6,0,0,0,.9-1.1,3.6,3.6,0,0,0,.5-1.3,1.1,1.1,0,0,0-.5-.8,1.5,1.5,0,0,0-1.3.1l-1.1,2.1a1.3,1.3,0,0,0,.1.6l.4.4A.9.9,0,0,0,163.2,371Z"/>
          <path class="cls-17" d="M168.9,369.6l-2.6,4.6-1.1-.6,2.6-4.6Zm1.1-2.2a.6.6,0,0,1,0,.6,1,1,0,0,1-.5.4.7.7,0,0,1-.6-.1,1,1,0,0,1-.4-.5.7.7,0,0,1,.1-.6c.1-.1.2-.3.4-.3a.5.5,0,0,1,.6.1C169.9,367.1,170,367.2,170,367.4Z"/>
          <path class="cls-17" d="M173.2,372.6l-.8.4a2.2,2.2,0,0,0-.9-1l-.6-.2c-.2,0-.3.1-.4.3v.3l.2.3.5.6a3.3,3.3,0,0,1,.8,1.1,1.5,1.5,0,0,1-1.3,1.9,2.4,2.4,0,0,1-1.6-.4,3.5,3.5,0,0,1-.9-.7,2.1,2.1,0,0,1-.6-1l.9-.3a4,4,0,0,0,1,1.2l.7.2.5-.3c0-.2.1-.3.1-.4s-.1-.2-.2-.4l-.6-.6a2.3,2.3,0,0,1-.7-1.1,1.2,1.2,0,0,1,.2-1,.9.9,0,0,1,.6-.6,1.3,1.3,0,0,1,.9-.1l1,.3A3.1,3.1,0,0,1,173.2,372.6Z"/>
          <path class="cls-17" d="M177.4,374.3l-.8,1-.4-.3a.8.8,0,0,0-.8,0l-.9.6-1.3,2.5-1.2-.6,2.6-4.6,1,.5-.4,1a1.4,1.4,0,0,1,.9-.5,1.4,1.4,0,0,1,.9.1Z"/>
          <path class="cls-17" d="M179.3,375.5l-2.6,4.6-1.1-.6,2.6-4.6Zm1.2-2.2a1.3,1.3,0,0,1-.1.6,1,1,0,0,1-.5.4h-.6a1,1,0,0,1-.4-.5,1.3,1.3,0,0,1,.1-.6.5.5,0,0,1,.5-.3.6.6,0,0,1,.6,0Z"/>
          <path class="cls-17" d="M183.1,381.1l-2.9-1.6a1.2,1.2,0,0,0-.2,1.1,1.1,1.1,0,0,0,.6.7l.6.3h.8v.9a3,3,0,0,1-2.1-.4,2.2,2.2,0,0,1-1.2-1.5,2.7,2.7,0,0,1,.4-2.1,2.5,2.5,0,0,1,.9-1.1,2.1,2.1,0,0,1,1.2-.5,1.5,1.5,0,0,1,1.3.3,2.1,2.1,0,0,1,1.2,1.4,3.4,3.4,0,0,1-.5,2.1Zm-.7-1.4c.5-.8.4-1.4-.2-1.7a.8.8,0,0,0-.8-.1,1.5,1.5,0,0,0-.8.8l1.8,1.1Z"/>
          <path class="cls-17" d="M190.6,379.4l-3.6,6.5-1-.6.2-.6-.8.2-.9-.2a1.9,1.9,0,0,1-.9-1.4,3.1,3.1,0,0,1,.5-2,4,4,0,0,1,1-1.2l1.1-.5a2.7,2.7,0,0,1,1.2.3,2,2,0,0,1,.9,1.1l1.3-2.3Zm-4.7,4.8.7-.2,1.2-2.1c-.1-.3-.1-.5-.2-.6a.8.8,0,0,0-.4-.4.8.8,0,0,0-.9,0c-.4.1-.7.5-1,1a3,3,0,0,0-.4,1.4.7.7,0,0,0,.4.7Z"/>
          <path class="cls-17" d="M193.3,386.9l-2.9-1.6a1.5,1.5,0,0,0-.2,1.1,1.1,1.1,0,0,0,.6.7c.2.2.5.2.7.3h.7v.9a2.8,2.8,0,0,1-2-.4,2.3,2.3,0,0,1-1.3-1.5,3.2,3.2,0,0,1,.4-2.1,2.7,2.7,0,0,1,1-1.1,2.1,2.1,0,0,1,1.2-.5,1.7,1.7,0,0,1,1.3.3,1.9,1.9,0,0,1,1.1,1.4,3,3,0,0,1-.4,2A.9.9,0,0,1,193.3,386.9Zm-.6-1.4c.4-.8.3-1.4-.2-1.7a1,1,0,0,0-.9-.1l-.8.8,1.8,1.1Z"/>
          <path class="cls-17" d="M198.7,386.4l-.8.9-.4-.2a.8.8,0,0,0-.8-.1,2.3,2.3,0,0,0-.8.7l-1.4,2.4-1.1-.6,2.6-4.6.9.5-.4,1a2,2,0,0,1,.9-.5,1.5,1.5,0,0,1,.9.2C198.5,386.1,198.6,386.3,198.7,386.4Z"/>
          <path class="cls-17" d="M202.9,389.5a3.5,3.5,0,0,1-.6,2,3.8,3.8,0,0,1-.9,1.2l-1.1.5a2.7,2.7,0,0,1-1.2-.3,1.6,1.6,0,0,1-.9-1.1l-1.2,2.1-1.2-.5,3.7-6.5,1,.6-.3.6a1.8,1.8,0,0,1,1-.2l.8.2A1.5,1.5,0,0,1,202.9,389.5Zm-1.8,1.4a2.6,2.6,0,0,0,.5-1.4.7.7,0,0,0-.4-.7l-.6-.2c-.3.1-.5.1-.7.3l-1.2,2a1,1,0,0,0,.6,1C199.9,392.3,200.6,391.9,201.1,390.9Z"/>
          <path class="cls-17" d="M202.6,394.5a1.5,1.5,0,0,1,.2-1.1l3-5.4,1.2.5-3.1,5.5c-.1.2-.1.4.1.5h.3l-.2.9-.8-.2A1.3,1.3,0,0,1,202.6,394.5Z"/>
          <path class="cls-17" d="M208.8,397.2l.2.3-.7.6-.5-.5a1.7,1.7,0,0,1-.1-.7l-.9.2-.9-.3a1.9,1.9,0,0,1-.8-1,1.5,1.5,0,0,1,.2-1.3,1.2,1.2,0,0,1,1.1-.8,2.5,2.5,0,0,1,1.8.5l.6.3v-.3c.2-.3.3-.5.2-.7l-.6-.6a4,4,0,0,0-1.3-.4v-.9a5.3,5.3,0,0,1,1.9.6c1.2.7,1.5,1.5.9,2.6l-1.1,1.9C208.9,396.9,208.8,397,208.8,397.2Zm-.9-1.1.5-1-.4-.2c-.7-.4-1.3-.4-1.6.2a1.3,1.3,0,0,0-.1.6.8.8,0,0,0,.4.4A1.3,1.3,0,0,0,207.9,396.1Z"/>
          <path class="cls-17" d="M212.5,400a.8.8,0,0,1-.7,0l-.6-.3a1.2,1.2,0,0,1-.8-.9,1.6,1.6,0,0,1,.3-1.3L212,395l-.7-.4.5-.8.7.4.6-1,1.1.5-.6,1.1,1.1.7-.6.7-1-.5-1.3,2.4a1.7,1.7,0,0,0-.2.5c0,.2.1.3.3.4h.7Z"/>
          <path class="cls-17" d="M218.8,397.8l-.5.8-3.9,1.7,2.3,1.2-.6.8-3.4-1.9.4-.8,3.9-1.7-2-1.1.5-.9Z"/>
          <path class="cls-17" d="M218.8,402.4a1.5,1.5,0,0,1-.1.7.9.9,0,0,1-.5.3.6.6,0,0,1-.6,0,1,1,0,0,1-.4-.5,1.3,1.3,0,0,1,.1-.6.7.7,0,0,1,.5-.4h.6Zm1.7-3.1a.7.7,0,0,1-.5,1h-.7c-.1-.2-.3-.3-.3-.5a.6.6,0,0,1,0-.6c.2-.2.3-.4.5-.4a.6.6,0,0,1,.6,0C220.3,399,220.5,399.1,220.5,399.3Z"/>
          <path class="cls-14" d="M153.8,371.9l-.6.8-1.6-.9-2.8,5.1-1.2-.6,2.9-5.1-1.6-.9.5-.9Z"/>
          <path class="cls-14" d="M156.4,375.1l-.8,1-.4-.3a.8.8,0,0,0-.8-.1,2.8,2.8,0,0,0-.9.7l-1.4,2.5-1.1-.7,2.6-4.6,1,.6-.4.9.9-.5a1.5,1.5,0,0,1,.9.2Z"/>
          <path class="cls-14" d="M158.2,381.2c0,.1.1.2.2.4l-.7.6-.5-.6a1.5,1.5,0,0,1-.1-.7,1.5,1.5,0,0,1-.9.2,1.6,1.6,0,0,1-.9-.3,1.6,1.6,0,0,1-.8-1,1.3,1.3,0,0,1,.1-1.2,1.8,1.8,0,0,1,1.2-.9,3.3,3.3,0,0,1,1.8.5l.6.3v-.2a.9.9,0,0,0,.2-.8c-.1-.2-.3-.3-.6-.5l-1.3-.5v-.9a4,4,0,0,1,1.9.7c1.2.6,1.5,1.5.9,2.5l-1.1,2A.8.8,0,0,0,158.2,381.2Zm-.9-1.1.5-.9-.4-.3c-.8-.4-1.3-.3-1.6.2a1.3,1.3,0,0,0-.1.6.7.7,0,0,0,.4.5A1.1,1.1,0,0,0,157.3,380.1Z"/>
          <path class="cls-14" d="M167.4,381.7a1.7,1.7,0,0,1-.2,1.2l-1.9,3.4-1.1-.7,1.7-3.1c.3-.5.3-.9,0-1a.7.7,0,0,0-.6-.1l-.7.3-1.8,3.2-1.1-.7,1.8-3.1c.2-.5.2-.9-.1-1a.5.5,0,0,0-.6-.1l-.7.3-1.8,3.2-1.1-.7,2.6-4.6.9.6-.2.6a1.7,1.7,0,0,1,1.7,0l.6.6a1.1,1.1,0,0,1,.1.8l.9-.2.9.2A1.5,1.5,0,0,1,167.4,381.7Z"/>
          <path class="cls-14" d="M174.6,384a1.8,1.8,0,0,1,.4.9,1.7,1.7,0,0,1-.3,1,2.7,2.7,0,0,1-.7.8l-1.3.7-2.3.6,2.5,1.4-.6.8-3.7-2,.5-.8,2.5-.8,1.3-.6a1.4,1.4,0,0,0,.6-.7.6.6,0,0,0,.1-.7c0-.3-.2-.4-.4-.6l-.7-.2-.8.2-.4-.9a2.3,2.3,0,0,1,2.4.1A2.4,2.4,0,0,1,174.6,384Z"/>
          <path class="cls-14" d="M175,390.4a.6.6,0,0,1,0,.6l-.3.3-.4.3-1.3,1-.7-.4,1.2-1.3a.6.6,0,0,1,.1-.7.8.8,0,0,1,.4-.4.9.9,0,0,1,1,.6Z"/>
          <path class="cls-14" d="M181.5,387.8a1.6,1.6,0,0,1,.3.9,1.5,1.5,0,0,1-.2.9,1.1,1.1,0,0,1-.8.7h-1.1a1.7,1.7,0,0,1,.7,1,1.3,1.3,0,0,1-.2,1.2,2.7,2.7,0,0,1-.7.8,2.2,2.2,0,0,1-1.1.2,2,2,0,0,1-1.3-.4,2.5,2.5,0,0,1-1.4-1.9l.9-.2a1.6,1.6,0,0,0,.4.7,1.2,1.2,0,0,0,.5.5,1.5,1.5,0,0,0,.9.2,1.3,1.3,0,0,0,.7-.6,1.5,1.5,0,0,0,.2-.9,2.2,2.2,0,0,0-.7-.6l-.5-.3.6-.7.3.2a1.2,1.2,0,0,0,.8.1c.3,0,.5-.2.7-.5a.9.9,0,0,0,0-.7c0-.2-.2-.4-.5-.5s-.4-.2-.7-.3h-.7l-.3-.9a3,3,0,0,1,2.3.3A2.2,2.2,0,0,1,181.5,387.8Z"/>
        </g>
        <g>
          <path class="cls-17" d="M426.7,154.8c-.4-.1-.6-.1-.8.2l-3.1,4.4c-.7,1-1.4,1.1-2.1.7a1.1,1.1,0,0,1-.7-1.4.7.7,0,0,1,.8-.3c.3.1.4.4.2.6s-.3.6,0,.8.4-.1.6-.3l3.4-5c.2-.3.1-.4-.2-.6l.2-.4,1.9,1Z"/>
          <path class="cls-17" d="M428.9,159.6c-.5.9-1.9,2-3.3,1.3a1.8,1.8,0,0,1-.6-2.6,2.6,2.6,0,0,1,3.3-1.3A1.8,1.8,0,0,1,428.9,159.6Zm-1-2.2c-.9-.5-1.7.6-2,1.3s-.4,1.5.1,1.7,1.7-.5,2-1.2S428.4,157.7,427.9,157.4Z"/>
          <path class="cls-17" d="M428.4,161.3c.3-.4.5-.6.7-.5s.3.3.2.5-.2.8.3,1.1.9,0,1-.3-1.2-1.9-.6-2.9a1.3,1.3,0,0,1,1.9-.3,1.4,1.4,0,0,1,.9,1.5c-.4.5-.5.5-.8.4s-.2-.2-.1-.4a.7.7,0,0,0-.2-1.1c-.5-.2-.7-.1-.8.2s1.1,1.8.6,2.9a1.6,1.6,0,0,1-2.2.4A1.5,1.5,0,0,1,428.4,161.3Z"/>
          <path class="cls-17" d="M434.5,163.1l-1.3-.4a1.2,1.2,0,0,0,.3,1.7,1.6,1.6,0,0,0,1.5,0v.4a2.1,2.1,0,0,1-1.9,0,1.9,1.9,0,0,1-.7-2.6c.5-1,1.9-2.1,3.3-1.4a1.5,1.5,0,0,1,.7,2.1C436.1,163.6,435.5,163.5,434.5,163.1Zm1.2-.7c.2-.4.2-.9-.3-1.1s-1.4.1-1.9.9l1.6.6C435.4,162.9,435.5,162.7,435.7,162.4Z"/>
          <path class="cls-17" d="M441.8,162.8a.4.4,0,0,1-.5.2.4.4,0,0,1-.2-.6.5.5,0,0,0-.3-.7c-.5-.2-.8.2-1.2.9l-.2.2,1.2.6c-.4.4-.5.4-.7.3l-.8-.4-2.5,3.5c-.7,1-1.5,1.4-2.3.9s-.8-1-.6-1.3.3-.4.5-.2.3.3.2.5-.1.5.1.6.9-.2,1.3-.8l2.5-3.6-.6-.3.3-.5.6.3v-.2q1.1-1.5,2.4-.9C441.9,161.8,442,162.4,441.8,162.8Z"/>
          <path class="cls-17" d="M439.2,166.9c.3-.4.4-.6.7-.5s.3.3.1.4a.7.7,0,0,0,.4,1.1.7.7,0,0,0,1-.2c.3-.7-1.2-1.9-.6-2.9s.8-.9,1.9-.3,1,1.3.8,1.5-.5.5-.7.4a.2.2,0,0,1-.1-.4.7.7,0,0,0-.3-1.1c-.4-.2-.7-.1-.8.2s1.2,1.8.7,2.8a1.6,1.6,0,0,1-2.2.5C439.3,168,439,167.1,439.2,166.9Z"/>
          <path class="cls-17" d="M450.4,169.5a16,16,0,0,1-4.1,2.2h-.1l.7-2.8a19.1,19.1,0,0,1-3.2,1.6h-.1l.9-3.7c.1-.4,0-.6-.4-.6l.2-.3h.8c.4.2.4.6.2,1.1l-.6,2.5a14,14,0,0,0,2.4-1.5h0c.1-.4,0-.6-.4-.6l.2-.3h.8c.4.2.4.7.2,1.2l-.6,2.5a14,14,0,0,0,2.4-1.5c.3-.3.2-.5-.2-.6l.2-.2h.8C450.9,168.8,450.7,169.2,450.4,169.5Z"/>
          <path class="cls-17" d="M451.1,173.1l-.4.4a1,1,0,0,1-.8-.1.6.6,0,0,1-.2-1l1.6-2.3c.2-.3.1-.5-.3-.5l.2-.3h1c.4.2.3.5,0,.9l-1.6,2.3C450.5,172.9,450.6,173.2,451.1,173.1Zm2.4-4.6c-.1.3-.5.3-.7.2a.5.5,0,0,1-.2-.8.5.5,0,0,1,.8-.2A.5.5,0,0,1,453.5,168.5Z"/>
          <path class="cls-17" d="M454.2,173.3l-1.2-.4c-.2.5-.5,1.3.3,1.7a1.4,1.4,0,0,0,1.4,0v.5a2.1,2.1,0,0,1-1.9-.1,1.8,1.8,0,0,1-.7-2.6,2.4,2.4,0,0,1,3.3-1.3,1.5,1.5,0,0,1,.7,2C455.8,173.8,455.3,173.7,454.2,173.3Zm1.2-.7a.7.7,0,0,0-.2-1.1c-.7-.3-1.4.2-1.9,1l1.6.5C455.1,173.1,455.3,172.9,455.4,172.6Z"/>
          <path class="cls-17" d="M455.5,175.4c.3-.4.4-.7.7-.5s.3.2.2.4-.2.8.3,1.1.8,0,1-.3-1.2-1.8-.6-2.9.8-.8,1.9-.3,1,1.3.8,1.5-.5.6-.7.4-.2-.2-.1-.4.2-.8-.3-1.1-.6,0-.8.2,1.2,1.8.7,2.9-1.1,1-2.2.4A1.4,1.4,0,0,1,455.5,175.4Z"/>
          <path class="cls-17" d="M461.6,177.1l-1.3-.4c-.2.4-.5,1.3.3,1.7a1.6,1.6,0,0,0,1.5,0v.5a2.5,2.5,0,0,1-1.9-.1,1.8,1.8,0,0,1-.7-2.6,2.4,2.4,0,0,1,3.3-1.3,1.4,1.4,0,0,1,.7,2C463.1,177.6,462.6,177.5,461.6,177.1Zm1.2-.7a.7.7,0,0,0-.3-1.1c-.7-.3-1.4.1-1.9.9l1.6.6C462.4,176.9,462.6,176.7,462.8,176.4Z"/>
          <path class="cls-17" d="M462.9,179.5a.5.5,0,0,1,.7-.3.7.7,0,0,1,.2.9.8.8,0,0,1-.8.2A.5.5,0,0,1,462.9,179.5Zm1.6-2.9a.7.7,0,0,1,.8-.2.6.6,0,0,1,.1.8.7.7,0,0,1-.8.3A.6.6,0,0,1,464.5,176.6Z"/>
          <path class="cls-17" d="M423,166a2.3,2.3,0,0,1-3.1.4l-.9-.4-.9,1.3c-.2.2,0,.4.2.6l-.2.3-1.8-1,.2-.3c.4.1.6.1.8-.1l2.5-3.8c.2-.2.1-.3-.2-.6l.2-.3,2.3,1.2A1.7,1.7,0,0,1,423,166Zm-1-2.3-1.1-.5-1.6,2.4.9.5a1.5,1.5,0,0,0,2-.7C422.6,164.7,422.7,164.1,422,163.7Z"/>
          <path class="cls-17" d="M424.3,169.1l-1.2-.4a1.1,1.1,0,0,0,.3,1.7,1.4,1.4,0,0,0,1.4,0v.4a2.1,2.1,0,0,1-1.9,0,1.8,1.8,0,0,1-.7-2.6,2.6,2.6,0,0,1,3.3-1.4,1.5,1.5,0,0,1,.6,2.1C425.9,169.6,425.4,169.5,424.3,169.1Zm1.2-.7c.2-.4.2-.9-.2-1.1s-1.4.1-2,.9l1.7.6C425.2,168.9,425.4,168.7,425.5,168.4Z"/>
          <path class="cls-17" d="M428.5,169.1l-1.6,2.5a.3.3,0,0,0,0,.5h.9l-.4.4a1.4,1.4,0,0,1-1.1,0,.9.9,0,0,1-.2-1.4l1.6-2.4-.5-.2.3-.5c.7.3,1.1.1,1.7-.4s.3.1.2.3l-.6.8.9.4-.3.5Z"/>
          <path class="cls-17" d="M432.3,174.6l-.4.4a1,1,0,0,1-.8-.1.5.5,0,0,1-.3-.7,2.3,2.3,0,0,1-1.4-.1,1.7,1.7,0,0,1-.6-2.5c.6-1.1,2-2.1,3.3-1.4a2,2,0,0,1,.7,1l.2-.4.8.5-1.9,2.8C431.7,174.4,431.8,174.7,432.3,174.6Zm-1-1.2,1.1-1.6a.9.9,0,0,0-.6-1.1c-.9-.5-1.7.5-2.1,1.3s-.4,1.4.1,1.7A1.2,1.2,0,0,0,431.3,173.4Z"/>
          <path class="cls-17" d="M437,177l-.4.4a.9.9,0,0,1-.8-.1.6.6,0,0,1-.3-.9l1.2-1.7c.4-.6.5-1,.1-1.3s-1.4.1-1.7.2l-1.7,2.5-.8-.4,2.1-3c.2-.3.1-.5-.3-.5l.2-.3h.9c.4.2.3.7,0,1h-.2a2.8,2.8,0,0,1,2.1-.1c.6.3.9.9.2,2l-1.1,1.5C436.3,176.8,436.4,177.1,437,177Z"/>
          <path class="cls-17" d="M440.3,181.3l-.2.3-1.5-.6,1.4-2a1.9,1.9,0,0,1-1.3-.1,1.9,1.9,0,0,1-.7-2.6c.6-1,2-2,3.3-1.3a1.4,1.4,0,0,1,.7,1.1l.3-.5.8.4-3.2,4.7C439.7,180.9,439.8,181.1,440.3,181.3Zm.2-3.1,1.1-1.6a.9.9,0,0,0-.5-1.1c-.9-.5-1.7.4-2.2,1.3s-.4,1.4.1,1.7A1.3,1.3,0,0,0,440.5,178.2Z"/>
          <path class="cls-17" d="M446.1,181.8l-.4.4c-.4.1-.6-.1-.8-.1s-.5-.7-.2-1v-.2a1.8,1.8,0,0,1-1.8.3c-.8-.4-1-1.2-.3-2.2l1.1-1.6c.2-.2.1-.5-.3-.5l.2-.2a1.3,1.3,0,0,1,.9.1c.4.2.3.5.1.9l-1.2,1.7c-.5.7-.4,1.1.1,1.3s1,.1,1.6-.4l1.1-1.6c.2-.2.1-.5-.3-.5l.2-.2a1.3,1.3,0,0,1,.9.1c.4.2.3.5.1.9l-1.6,2.3C445.5,181.5,445.5,181.8,446.1,181.8Z"/>
          <path class="cls-17" d="M449.2,182l-1.2-.5c-.3.5-.6,1.3.3,1.7a1.7,1.7,0,0,0,1.4.1v.4a2.1,2.1,0,0,1-1.9,0,1.9,1.9,0,0,1-.7-2.6c.5-1,1.9-2.1,3.3-1.4a1.5,1.5,0,0,1,.7,2.1C450.8,182.4,450.2,182.3,449.2,182Zm1.2-.7c.2-.4.2-.9-.2-1.1s-1.5.1-2,.9l1.6.6C450.1,181.8,450.3,181.6,450.4,181.3Z"/>
        </g>
        <g>
          <path class="cls-17" d="M326,127.2v-.4c.1-.3-.1-.4-.4-.6l-1.5-.9-1.3,1.8,1.3.8c.2.1.4,0,.7-.2h.2l-.9,1.3-.2-.2c.1-.3.1-.4-.1-.6l-1.4-.7-1.2,1.6c-.2.3-.1.4.2.7l-.3.3-1.8-1,.3-.4c.3.1.6.1.7-.1l2.7-3.6c.2-.3.1-.4-.2-.6l.3-.4,3.4,2c.2.1.2.2.1.5l-.4.7Z"/>
          <path class="cls-17" d="M328.9,130c-.7.3-.6-.1-1-.3s-1.1.3-1.6.7l-1.4,1.9-.7-.5,2.2-2.9c.2-.3.1-.5-.3-.5l.2-.3.9.2c.3.2.2.6,0,.9l-.7.8.5-.4c.7-.6,1.3-.7,1.8-.4S329.4,129.9,328.9,130Z"/>
          <path class="cls-17" d="M331.5,135l-.4.4a1,1,0,0,1-.8-.1.7.7,0,0,1-.3-.8,1.5,1.5,0,0,1-1.3-.1,1.8,1.8,0,0,1-.6-2.6,2.6,2.6,0,0,1,3.3-1.2,1.2,1.2,0,0,1,.7,1.1l.3-.4.8.4-2.1,2.8C330.9,134.8,330.9,135,331.5,135Zm-1-1.2,1.2-1.6a.9.9,0,0,0-.6-1.1c-.8-.5-1.7.4-2.1,1.2s-.4,1.4.1,1.7A1.1,1.1,0,0,0,330.5,133.8Z"/>
          <path class="cls-17" d="M336.1,137.6l-.5.3a1,1,0,0,1-.8-.1c-.4-.2-.4-.6-.2-1l.2-.2a1.5,1.5,0,0,1-1.8.3,1.4,1.4,0,0,1-.3-2.2l1.1-1.6c.2-.2.2-.4-.2-.5l.2-.2h.9c.4.2.3.6.1.9l-1.3,1.7c-.5.7-.4,1.1,0,1.3a1.4,1.4,0,0,0,1.7-.3l1.1-1.6c.2-.2.2-.5-.2-.5l.2-.2a1.3,1.3,0,0,1,.9.1c.4.2.3.6,0,.9l-1.6,2.2C335.4,137.3,335.5,137.6,336.1,137.6Z"/>
          <path class="cls-17" d="M344.2,137.8a1.5,1.5,0,0,0-.7-1.8c-1.4-.7-2.7.9-3.3,1.9s-.4,2,.3,2.4,1.3.4,1.5.1l.5-.7c.2-.2.1-.3,0-.4l-.4-.2.3-.4,1.9,1.1-.3.4-.2-.2c-.2,0-.4,0-.5.2l-1.2,1.7c-.1.1-.4-.1-.3-.2l.2-.7a2.4,2.4,0,0,1-2-.2,2.5,2.5,0,0,1-.8-3.6c.7-1.2,2.7-2.7,4.6-1.7a1.6,1.6,0,0,1,.8,1.6c.2.1.5-.2.8-.5l.3.2-1,1.6h-.6Z"/>
          <path class="cls-17" d="M346.3,141.9l-1.2-.5c-.3.5-.6,1.3.2,1.7a1.4,1.4,0,0,0,1.4.1v.5a2.2,2.2,0,0,1-1.9-.2,1.9,1.9,0,0,1-.7-2.6c.6-.9,2-2,3.4-1.2a1.5,1.5,0,0,1,.6,2.1C347.8,142.4,347.3,142.3,346.3,141.9Zm1.2-.6c.2-.5.2-.9-.2-1.2s-1.4.1-2,.9l1.6.6A.5.5,0,0,0,347.5,141.3Z"/>
          <path class="cls-17" d="M352,143.1c-.7.2-.5-.2-.9-.4s-1.2.3-1.6.8l-1.4,1.8-.8-.5,2.2-2.9c.2-.3.1-.5-.3-.5l.2-.2a1.2,1.2,0,0,1,.9.1c.4.2.3.6,0,.9l-.7.8.6-.4a1.6,1.6,0,0,1,1.8-.4C352.4,142.5,352.6,142.9,352,143.1Z"/>
          <path class="cls-17" d="M355.3,146.3c-.5,1-2,2-3.3,1.2a1.8,1.8,0,0,1-.6-2.6c.5-.9,2-2,3.3-1.2A1.8,1.8,0,0,1,355.3,146.3Zm-.9-2.2c-.9-.5-1.7.6-2.1,1.3s-.4,1.4.1,1.7,1.6-.5,2-1.2S354.9,144.4,354.4,144.1Z"/>
          <path class="cls-17" d="M356.5,149.1l-.4.3a.9.9,0,0,1-.8-.1c-.5-.2-.5-.6-.2-1l2.9-3.9c.2-.3,0-.4-.4-.7l.3-.2,1.4.6-3.3,4.4C355.8,148.8,355.9,149.1,356.5,149.1Z"/>
          <path class="cls-17" d="M361.1,151.6l-.5.4a1,1,0,0,1-.8-.1.7.7,0,0,1-.3-.8,2,2,0,0,1-1.3-.1,1.8,1.8,0,0,1-.6-2.6c.6-1,2.1-1.9,3.3-1.2a1.2,1.2,0,0,1,.7,1.1l1-1.3c.2-.3,0-.5-.4-.7l.2-.3a4.2,4.2,0,0,0,1.5.6l-3.3,4.5C360.4,151.4,360.5,151.7,361.1,151.6Zm-1-1.3,1.1-1.5a1.2,1.2,0,0,0-.6-1.2c-.8-.4-1.6.4-2.1,1.3s-.5,1.4,0,1.7A1.3,1.3,0,0,0,360.1,150.3Z"/>
          <path class="cls-17" d="M361.5,151.8c.3-.3.4-.6.7-.4s.3.2.1.4-.2.8.3,1.1.9.1,1-.2-1.1-1.9-.5-2.9.9-.9,2-.3.9,1.4.7,1.5-.5.6-.7.5-.2-.3-.1-.5a.7.7,0,0,0-.2-1.1.6.6,0,0,0-.8.2c-.4.7,1.1,1.8.5,2.9a1.6,1.6,0,0,1-2.2.3C361.6,152.9,361.3,152.1,361.5,151.8Z"/>
          <path class="cls-17" d="M370.8,153.3a.6.6,0,0,1-.7.1c-.2-.1-.3-.3-.5.1a1.8,1.8,0,0,1-2.6.7l-.4-.3c-.3-.3-.7-.4-.8-.2s0,.4.3.7l.8.6c.9.7,1.2,1.3.9,1.9s-1.9.9-3,.3-1.5-1.4-1.1-2.1a.7.7,0,0,1,.9-.3c.5.2.2.4-.1.8s-.1.8.6,1.2,1.5.3,1.7-.1.1-.6-.3-1l-1-.9c-.8-.6-.8-1-.6-1.4a.9.9,0,0,1,1.3-.1,1.7,1.7,0,0,1,.1-1.2,1.7,1.7,0,0,1,2.4-.5,1.5,1.5,0,0,1,.9,1.3.7.7,0,0,1,.9-.2A.4.4,0,0,1,370.8,153.3Zm-2-.3a.6.6,0,0,0-.3-.9c-.8-.5-1.2.1-1.5.6a.7.7,0,0,0,.3,1.1C368.1,154.2,368.6,153.5,368.8,153Z"/>
          <path class="cls-17" d="M373.1,158.4l-.5.4a1.5,1.5,0,0,1-.8-.2c-.3-.2-.4-.4-.3-.7a2,2,0,0,1-1.3-.1,1.9,1.9,0,0,1-.6-2.6A2.5,2.5,0,0,1,373,154a1.1,1.1,0,0,1,.6,1l.3-.4.8.5-2.1,2.8C372.4,158.1,372.5,158.4,373.1,158.4Zm-1.1-1.3,1.2-1.5a1.1,1.1,0,0,0-.5-1.2c-.9-.5-1.7.4-2.2,1.2s-.4,1.5.1,1.8A1.2,1.2,0,0,0,372,157.1Z"/>
          <path class="cls-17" d="M378,157.7c-.7.2-.6-.2-1-.4s-1.1.3-1.6.8l-1.4,1.8-.7-.5,2.2-2.9c.2-.3.1-.5-.3-.5l.2-.2a1.3,1.3,0,0,1,.9.1c.3.2.2.6,0,.9l-.7.8.5-.4a1.6,1.6,0,0,1,1.8-.4C378.3,157.1,378.5,157.5,378,157.7Z"/>
          <path class="cls-17" d="M379.9,158.6l-1.8,2.4c-.1.2-.1.4.1.5a1.1,1.1,0,0,0,.8.1l-.3.3a1.7,1.7,0,0,1-1.2,0,1,1,0,0,1-.2-1.4l1.8-2.3-.5-.3.3-.5c.7.4,1.1.1,1.7-.3s.3.1.2.3l-.6.8.9.5-.4.4Z"/>
          <path class="cls-17" d="M382,162l-1.2-.5c-.2.5-.5,1.3.3,1.8a1.4,1.4,0,0,0,1.4,0v.5a2.5,2.5,0,0,1-1.9-.1,1.9,1.9,0,0,1-.6-2.7,2.6,2.6,0,0,1,3.4-1.2,1.5,1.5,0,0,1,.6,2.1C383.6,162.5,383.1,162.4,382,162Zm1.3-.6c.2-.4.2-.9-.2-1.1s-1.5,0-2,.8l1.6.6C382.9,161.8,383.1,161.6,383.3,161.4Z"/>
          <path class="cls-17" d="M387.5,166.5l-.4.4c-.5,0-.7-.1-.8-.2a.5.5,0,0,1-.2-.9l1.2-1.7c.4-.6.6-1,.1-1.2a2.1,2.1,0,0,0-1.6.1l-1.9,2.4-.7-.4,2.1-3c.2-.2.1-.4-.3-.4l.3-.3h.9a.7.7,0,0,1-.1,1H386a2.3,2.3,0,0,1,2,0c.7.3.9.9.1,1.9L387,166C386.8,166.2,386.9,166.5,387.5,166.5Z"/>
          <path class="cls-17" d="M387.9,167a.8.8,0,0,1,.8-.2.5.5,0,0,1,.1.8.5.5,0,0,1-.8.2C387.7,167.7,387.7,167.3,387.9,167Zm1.7-2.8a.8.8,0,0,1,.8-.2.6.6,0,0,1,.1.9.8.8,0,0,1-.8.2A.7.7,0,0,1,389.6,164.2Z"/>
          <path class="cls-17" d="M321.7,135.9c-.6.9-1.9,1.1-3.2.4l-.8-.5-.9,1.2c-.2.3-.1.4.2.7l-.2.3-1.9-1,.3-.4c.3.1.6.2.7-.1l2.7-3.6c.2-.3.1-.4-.2-.6l.3-.4,2.2,1.3C322.1,133.9,322.5,134.9,321.7,135.9Zm-.9-2.3-1.1-.5-1.7,2.3.9.5c.8.5,1.5.1,2-.6S321.5,134,320.8,133.6Z"/>
          <path class="cls-17" d="M322.9,139.1l-1.2-.5c-.3.5-.6,1.3.2,1.7a2,2,0,0,0,1.5.1v.4a1.9,1.9,0,0,1-1.9-.1,1.8,1.8,0,0,1-.6-2.6,2.4,2.4,0,0,1,3.3-1.2,1.5,1.5,0,0,1,.6,2.1C324.5,139.6,324,139.5,322.9,139.1Zm1.2-.7a.7.7,0,0,0-.2-1.1c-.7-.4-1.4.1-1.9.9l1.6.6C323.8,138.9,324,138.7,324.1,138.4Z"/>
          <path class="cls-17" d="M328.7,141.7c-.6.9-2,1.9-3.3,1.2a1.8,1.8,0,0,1-.6-2.6,2.4,2.4,0,0,1,3.3-1.2A1.8,1.8,0,0,1,328.7,141.7Zm-.9-2.2c-.9-.5-1.8.5-2.2,1.2s-.4,1.5.1,1.7,1.7-.4,2.1-1.2S328.2,139.7,327.8,139.5Z"/>
          <path class="cls-17" d="M333.3,144.1a2.7,2.7,0,0,1-3.6,1.2,1.3,1.3,0,0,1-.7-.6l-.9,1.2c-.2.2-.1.3.2.5l-.2.3-1.5-.9v-.3c.3.1.5.2.6,0l3-4q.3-.5-.3-.6l.2-.2a1.6,1.6,0,0,1,1,.2c.3.1.3.5,0,.8a2.2,2.2,0,0,1,1.6,0A1.6,1.6,0,0,1,333.3,144.1Zm-.9-.4c.4-.6.4-1.3-.1-1.6a2,2,0,0,0-1.5.1l-.5.7-.6.8c-.3.6-.1.9.4,1.2S331.9,144.6,332.4,143.7Z"/>
          <path class="cls-17" d="M334.5,147l-.4.4h-.8a.7.7,0,0,1-.3-1l3-4c.2-.2,0-.4-.4-.6l.2-.3,1.5.6-3.3,4.5C333.8,146.8,333.9,147,334.5,147Z"/>
          <path class="cls-17" d="M337.6,147.3l-1.2-.4a1.1,1.1,0,0,0,.2,1.7,1.8,1.8,0,0,0,1.4.1v.4a2.1,2.1,0,0,1-1.9-.1,2,2,0,0,1-.7-2.7c.6-.9,2-2,3.4-1.2a1.5,1.5,0,0,1,.6,2.1C339.1,147.8,338.6,147.7,337.6,147.3Zm1.2-.6c.2-.4.2-.9-.2-1.1s-1.4,0-2,.8l1.6.6A.5.5,0,0,0,338.8,146.7Z"/>
          <path class="cls-17" d="M342.1,149l-.3.5-2.2-1.2.4-.5Z"/>
          <path class="cls-17" d="M349.5,152.1a13.8,13.8,0,0,1-4.2,2.1h-.1l.8-2.8a13.3,13.3,0,0,1-3.2,1.5h-.2l1.1-3.7c.1-.4-.1-.6-.4-.6l.2-.3a1.2,1.2,0,0,1,.8.2c.4.2.4.6.2,1.1l-.8,2.5a11.7,11.7,0,0,0,2.5-1.4h0c.2-.5,0-.7-.4-.7l.3-.2a.8.8,0,0,1,.8.1c.3.2.3.6.1,1.1l-.7,2.5a11.7,11.7,0,0,0,2.5-1.4c.3-.3.1-.5-.2-.5l.2-.3a1.1,1.1,0,0,1,.8.2C350,151.5,349.8,151.9,349.5,152.1Z"/>
          <path class="cls-17" d="M352.3,157l-.4.4a.9.9,0,0,1-.8-.1.7.7,0,0,1-.3-.8,1.2,1.2,0,0,1-1.3-.1,1.7,1.7,0,0,1-.6-2.5,2.5,2.5,0,0,1,3.3-1.3,1.3,1.3,0,0,1,.7,1.1l.3-.4.7.4-2,2.8C351.7,156.8,351.7,157.1,352.3,157Zm-1-1.2,1.2-1.6a.9.9,0,0,0-.6-1.1c-.8-.5-1.7.4-2.1,1.2s-.4,1.4.1,1.7A1.1,1.1,0,0,0,351.3,155.8Z"/>
          <path class="cls-17" d="M355.7,155.3l-1.8,2.4c-.1.2-.1.4.1.5a1.3,1.3,0,0,0,.9.1l-.4.4a1.4,1.4,0,0,1-1.1-.1c-.6-.3-.6-.8-.2-1.4l1.7-2.3-.5-.3.4-.4c.6.3,1,.1,1.6-.3s.3.1.2.2l-.6.8.9.5-.3.4Z"/>
          <path class="cls-17" d="M356.5,160.4a1.8,1.8,0,0,1-.5-2.6,2.5,2.5,0,0,1,3.4-1.1c.9.5,1,1.2.7,1.7s-.4.4-.7.2a.4.4,0,0,1-.2-.6l.2-.2a.5.5,0,0,0-.3-.7c-.9-.5-1.8.4-2.2,1.2s-.5,1.4.1,1.7,1.3,0,1.4.1.1.2.1.4A2,2,0,0,1,356.5,160.4Z"/>
          <path class="cls-17" d="M363.3,163.2l-.4.4c-.5,0-.7,0-.9-.2a.6.6,0,0,1-.2-.9l1.3-1.7c.4-.5.6-1,.1-1.2a2.2,2.2,0,0,0-1.6,0l-1.9,2.5-.8-.4,3.4-4.5c.2-.3.1-.5-.3-.7l.2-.3,1.4.6-1.6,2.3h-.2a2.6,2.6,0,0,1,2-.1c.7.4,1,1.1.1,2.2l-1.1,1.4C362.6,162.9,362.7,163.2,363.3,163.2Z"/>
          <path class="cls-17" d="M365.3,164.3l-.4.4a1.3,1.3,0,0,1-.9-.1.7.7,0,0,1-.1-1l1.7-2.3a.3.3,0,0,0-.2-.5l.2-.2a1.4,1.4,0,0,1,.9.1c.4.2.3.5,0,.9l-1.7,2.2C364.6,164.1,364.7,164.4,365.3,164.3Zm2.6-4.5a.7.7,0,0,1-.8.2c-.3-.1-.3-.5-.1-.8s.5-.3.8-.2A.6.6,0,0,1,367.9,159.8Z"/>
          <path class="cls-17" d="M369.9,166.9l-.4.4a.9.9,0,0,1-.8-.1c-.4-.3-.5-.7-.2-1l1.2-1.7c.5-.5.6-.9.1-1.2s-1.3,0-1.6.1l-1.8,2.5-.8-.5,2.2-2.9c.2-.3.1-.5-.3-.5l.2-.2a1.3,1.3,0,0,1,.9.1c.4.2.3.6,0,.9l-.2.2a1.9,1.9,0,0,1,2-.1c.7.4,1,1,.2,2l-1.2,1.5C369.2,166.7,369.3,167,369.9,166.9Z"/>
          <path class="cls-17" d="M376.3,166.7c-.2.3-.4.3-.6.1s-.4-.2-.6.2a1.8,1.8,0,0,1-2.6.6l-.4-.3c-.3-.3-.7-.4-.8-.2s0,.5.3.7l.8.6c.9.8,1.2,1.3.9,1.9s-1.9.9-3,.3-1.5-1.4-1.1-2.1a.8.8,0,0,1,1-.3c.4.3.1.4-.1.8s-.1.9.5,1.2,1.5.3,1.8-.1a.7.7,0,0,0-.3-.9l-1.1-.9c-.8-.7-.8-1.1-.6-1.4a.9.9,0,0,1,1.3-.2,1.7,1.7,0,0,1,.1-1.2,1.7,1.7,0,0,1,2.4-.5,1.7,1.7,0,0,1,.9,1.3.8.8,0,0,1,1-.2A.5.5,0,0,1,376.3,166.7Zm-1.9-.2a.8.8,0,0,0-.4-1c-.7-.4-1.2.2-1.5.6a.7.7,0,0,0,.3,1.1C373.6,167.7,374.1,166.9,374.4,166.5Z"/>
        </g>
        <g>
          <path class="cls-17" d="M237.8,334.2c-.4.8-1.5,1.4-3.2.4a10.7,10.7,0,0,1-1.4-1l-1-.4.3-.4c.4.1.7.1.8-.1l2.7-3.5q.1-.3-.3-.6l.3-.4,2.3,1.4c1.1.6,1.5,1.4,1.1,2.1a1.5,1.5,0,0,1-2,.6A1.4,1.4,0,0,1,237.8,334.2Zm-.8-.5c.3-.7.1-1.2-.7-1.7l-.8-.5-1.3,1.7c-.4.4.1.7.6,1A1.4,1.4,0,0,0,237,333.7Zm-1.2-2.6.9.6a1.3,1.3,0,0,0,1.8-.5c.3-.5.1-.9-.4-1.2l-1-.6Z"/>
          <path class="cls-17" d="M241.9,337.9l-.5.4-.8-.2a.6.6,0,0,1-.2-.9l.2-.2a1.5,1.5,0,0,1-1.8.1c-.8-.4-1-1.2-.3-2.1l1.2-1.5c.2-.3.2-.5-.2-.6l.2-.2a1.3,1.3,0,0,1,.9.2c.4.2.3.5,0,.8l-1.3,1.7c-.5.7-.4,1.1.1,1.3s1,.2,1.6-.3l1.2-1.5c.2-.3.1-.5-.3-.5l.3-.3.9.2c.3.2.2.5,0,.9l-1.7,2.2C241.2,337.6,241.3,337.9,241.9,337.9Z"/>
          <path class="cls-17" d="M243.9,339.1l-.4.4a1,1,0,0,1-.8-.1.7.7,0,0,1-.2-1l3-3.9c.2-.3.1-.4-.3-.7l.2-.2a5.8,5.8,0,0,0,1.5.6l-3.4,4.4C243.3,338.9,243.4,339.2,243.9,339.1Z"/>
          <path class="cls-17" d="M246.1,340.4l-.5.4a1.5,1.5,0,0,1-.8-.2c-.4-.2-.4-.6-.1-1l2.9-3.8c.2-.3.1-.5-.3-.7l.2-.3,1.5.7-3.4,4.4C245.4,340.1,245.5,340.4,246.1,340.4Z"/>
          <path class="cls-17" d="M248.2,341.6l-.4.4a1.3,1.3,0,0,1-.9-.1.7.7,0,0,1-.1-1l1.8-2.3c.2-.2.1-.5-.3-.5l.2-.2a1.6,1.6,0,0,1,1,.1c.3.3.2.6,0,.9l-1.7,2.2C247.6,341.4,247.6,341.7,248.2,341.6Zm2.7-4.4a.6.6,0,0,1-.8.1.5.5,0,0,1-.1-.8.8.8,0,0,1,.8-.2A.7.7,0,0,1,250.9,337.2Z"/>
          <path class="cls-17" d="M252.8,344.3l-.5.4c-.4.1-.6-.1-.8-.1a.6.6,0,0,1-.1-1l1.2-1.7c.5-.6.6-.9.2-1.2a2.4,2.4,0,0,0-1.7.1l-1.8,2.4-.8-.4,2.2-3c.2-.2.1-.4-.3-.5l.2-.2c.4,0,.7,0,.9.2s.3.6,0,.9h-.1a2.2,2.2,0,0,1,2,0c.6.4.9,1,.1,2l-1.2,1.5C252.1,344,252.2,344.3,252.8,344.3Z"/>
          <path class="cls-17" d="M259.1,344.2c-.1.3-.4.3-.6.1s-.3-.2-.6.2a1.8,1.8,0,0,1-2.6.5l-.3-.2c-.4-.4-.7-.5-.9-.2s.1.4.4.6l.7.6c.9.8,1.2,1.3.9,2s-1.9.9-3,.2-1.5-1.4-1-2.1a.6.6,0,0,1,.9-.3c.5.3.1.4-.1.8a.9.9,0,0,0,.5,1.2c1,.6,1.5.4,1.8-.1s.1-.6-.3-.9l-1.1-.9c-.8-.7-.7-1.1-.5-1.4a.9.9,0,0,1,1.3-.2,1.4,1.4,0,0,1,.1-1.1,1.7,1.7,0,0,1,2.4-.5,1.6,1.6,0,0,1,.9,1.3.7.7,0,0,1,.9-.2C259.2,343.7,259.3,344,259.1,344.2Zm-1.9-.3a.7.7,0,0,0-.3-1c-.8-.4-1.2.2-1.5.6s-.2.9.2,1.1S257,344.4,257.2,343.9Z"/>
          <path class="cls-17" d="M260,347.2l-1.2-.5c-.2.4-.6,1.2.2,1.7a2,2,0,0,0,1.5.1v.4a2.1,2.1,0,0,1-1.9-.1,1.9,1.9,0,0,1-.6-2.7c.6-.9,2-2,3.4-1.1a1.5,1.5,0,0,1,.6,2.1C261.6,347.7,261.1,347.6,260,347.2Zm1.3-.7a.8.8,0,0,0-.2-1.1c-.7-.4-1.4.1-2,.8l1.6.7C260.9,347,261.1,346.8,261.3,346.5Z"/>
          <path class="cls-17" d="M265.7,348.4c-.7.3-.5-.1-.9-.3s-1.1.2-1.6.7l-1.4,1.8-.8-.5,2.3-2.9c.2-.3.1-.4-.3-.5l.2-.2h.9c.4.2.3.6,0,.9l-.7.8.5-.4a1.6,1.6,0,0,1,1.8-.3C266.1,347.8,266.3,348.2,265.7,348.4Z"/>
          <path class="cls-17" d="M269.7,352a2.9,2.9,0,0,1-3.7,1.1l-.7-.6-.9,1.2c-.1.2-.1.3.2.4l-.2.3-1.5-.9.2-.3c.2.2.4.2.5,0l3.1-3.9q.3-.4-.3-.6l.2-.2a1.6,1.6,0,0,1,1,.2c.3.2.3.5,0,.8a1.8,1.8,0,0,1,1.6.1A1.6,1.6,0,0,1,269.7,352Zm-.9-.4c.4-.7.4-1.4-.1-1.6s-.9-.2-1.5,0l-.5.7-.6.8c-.4.6-.2.9.3,1.2S268.3,352.4,268.8,351.6Z"/>
          <path class="cls-17" d="M270.8,354.9l-.5.3a1,1,0,0,1-.8-.1c-.4-.2-.4-.6-.1-1l2.9-3.9q.3-.3-.3-.6l.2-.3,1.5.6-3.4,4.5C270.1,354.6,270.2,354.9,270.8,354.9Z"/>
          <path class="cls-17" d="M275.4,357.6l-.5.3a1,1,0,0,1-.8-.1.7.7,0,0,1-.3-.8,1.2,1.2,0,0,1-1.3-.1,1.8,1.8,0,0,1-.5-2.6,2.5,2.5,0,0,1,3.3-1.1,1.2,1.2,0,0,1,.7,1l.2-.4.8.5-2.1,2.7C274.7,357.3,274.8,357.6,275.4,357.6Zm-1.1-1.3,1.2-1.6a.9.9,0,0,0-.5-1.1c-.8-.5-1.7.4-2.2,1.2s-.4,1.4.1,1.7A1.1,1.1,0,0,0,274.3,356.3Z"/>
          <path class="cls-17" d="M278.7,355.9l-1.7,2.4c-.2.2-.2.4,0,.5a1.3,1.3,0,0,0,.9.1l-.4.3a1.1,1.1,0,0,1-1.1-.1c-.6-.3-.6-.8-.2-1.3l1.8-2.3-.5-.3.3-.4a1.5,1.5,0,0,0,1.7-.3c.1-.1.3.1.2.2l-.6.8.9.5-.4.4Z"/>
          <path class="cls-17" d="M281,361.8l-2.8-1.6c-.2-.1-.1-.4.1-.5l4.2-1.7-1.6-.8c-.1-.1-.3.1-.4.2H280l.9-.8,3,1.8-4.7,1.8,1.7,1c.2.1.3-.1.5-.2h.1l.3.2Z"/>
          <path class="cls-17" d="M282.2,361.9a.8.8,0,0,1,.8-.2.5.5,0,0,1,.1.8.5.5,0,0,1-.8.2A.6.6,0,0,1,282.2,361.9Zm1.8-2.7a.6.6,0,0,1,.8-.2c.3.1.3.5.1.8a.8.8,0,0,1-.8.2A.5.5,0,0,1,284,359.2Z"/>
          <path class="cls-17" d="M237,341.9v-.4c.1-.3,0-.4-.4-.6l-1.4-.9-1.4,1.8,1.3.8c.2.1.4,0,.7-.2h.2l-.9,1.2H235c.1-.3.1-.5-.1-.6l-1.3-.8-1.3,1.7c-.2.2-.1.3.2.6l-.3.3-1.8-1,.3-.4c.3.1.6.1.7-.1l2.8-3.6c.2-.2.1-.3-.2-.6l.3-.3,3.3,2c.2.1.3.3.1.5l-.4.8Z"/>
          <path class="cls-17" d="M237.9,345.8l-1.2-.5a1.1,1.1,0,0,0,.2,1.7,1.7,1.7,0,0,0,1.4.1v.4a1.9,1.9,0,0,1-2.4-2.8,2.5,2.5,0,0,1,3.3-1.1,1.5,1.5,0,0,1,.6,2.1C239.4,346.3,238.9,346.2,237.9,345.8Zm1.2-.7a.7.7,0,0,0-.1-1.1c-.8-.4-1.5.1-2,.8l1.6.7C238.8,345.6,239,345.4,239.1,345.1Z"/>
          <path class="cls-17" d="M240.8,348.9l-.5.3a1,1,0,0,1-.8-.1c-.4-.2-.4-.6-.1-1l1.7-2.3c.2-.2.1-.4-.2-.5l.2-.2a1.5,1.5,0,0,1,.9.2c.4.2.3.5,0,.8l-1.7,2.2C240.1,348.6,240.2,348.9,240.8,348.9Zm2.6-4.5a.8.8,0,0,1-.8.2.6.6,0,0,1-.1-.9.6.6,0,0,1,.8-.1C243.6,343.7,243.6,344.1,243.4,344.4Z"/>
          <path class="cls-17" d="M243.8,349.3l-1.2-.5a1.3,1.3,0,0,0,.2,1.7,2,2,0,0,0,1.5.1v.4a2.1,2.1,0,0,1-1.9-.1,1.9,1.9,0,0,1-.6-2.7c.6-.9,2-2,3.4-1.1a1.5,1.5,0,0,1,.6,2.1C245.4,349.8,244.9,349.7,243.8,349.3Zm1.3-.7a.8.8,0,0,0-.2-1.1c-.7-.4-1.4.1-2,.8l1.6.7C244.7,349.1,244.9,348.9,245.1,348.6Z"/>
          <path class="cls-17" d="M249.6,350.5c-.7.3-.6-.1-1-.3s-1.1.2-1.6.7l-1.4,1.8-.8-.5,2.3-2.9c.2-.3.1-.4-.3-.5l.2-.2h.9c.4.2.3.6,0,.9l-.7.8.5-.4c.7-.5,1.4-.6,1.8-.3S250.1,350.3,249.6,350.5Z"/>
          <path class="cls-17" d="M252.1,355.5l-.4.4a1,1,0,0,1-.8-.1.7.7,0,0,1-.3-.8,2,2,0,0,1-1.3-.1,1.9,1.9,0,0,1-.5-2.6,2.6,2.6,0,0,1,3.3-1.2,1.4,1.4,0,0,1,.6,1.1l.3-.4.8.5-2.1,2.7C251.5,355.3,251.6,355.6,252.1,355.5Zm-1-1.2,1.2-1.6a.9.9,0,0,0-.5-1.1c-.8-.5-1.7.4-2.2,1.1s-.4,1.5.1,1.8A1.1,1.1,0,0,0,251.1,354.3Z"/>
          <path class="cls-17" d="M257.5,356.4a2.9,2.9,0,0,1-3.7,1.1c-.9-.5-1.3-1.2-.7-2l2.6-3.4c.2-.3.1-.5-.3-.7l.2-.3a5.1,5.1,0,0,0,1.5.7l-1.1,1.4a3.8,3.8,0,0,1-.9.9h.3a1.5,1.5,0,0,1,1.6,0A1.7,1.7,0,0,1,257.5,356.4Zm-.9-.4c.3-.7.3-1.4-.1-1.6a1.6,1.6,0,0,0-1.5,0l-1.1,1.4c-.5.6-.3,1,.2,1.3S256,356.9,256.6,356Z"/>
          <path class="cls-17" d="M259.5,358.5l-1.2-.5a1.3,1.3,0,0,0,.2,1.7,2,2,0,0,0,1.5.1v.4a2.1,2.1,0,0,1-1.9-.1,1.9,1.9,0,0,1-.6-2.7,2.6,2.6,0,0,1,3.4-1.1,1.5,1.5,0,0,1,.6,2.1C261.1,359,260.6,358.9,259.5,358.5Zm1.3-.7a.8.8,0,0,0-.2-1.1c-.7-.4-1.4.1-2,.8l1.6.7C260.4,358.3,260.6,358.1,260.8,357.8Z"/>
          <path class="cls-17" d="M264.9,363l-.4.4a1.3,1.3,0,0,1-.8-.1c-.5-.3-.5-.7-.2-1l1.3-1.7c.4-.5.5-.9.1-1.2a2.4,2.4,0,0,0-1.7.1l-1.8,2.4-.8-.4,2.2-3c.2-.2.1-.4-.3-.4l.3-.3a1.5,1.5,0,0,1,.9.2c.3.2.2.6-.1.9h-.1a2.3,2.3,0,0,1,2,0c.6.4.9,1,.1,2l-1.2,1.5C264.2,362.8,264.3,363,264.9,363Z"/>
          <path class="cls-17" d="M269.3,365.6l-.4.4a1,1,0,0,1-.8-.1.7.7,0,0,1-.3-.8,2.3,2.3,0,0,1-1.4-.1,1.9,1.9,0,0,1-.5-2.6,2.6,2.6,0,0,1,3.4-1.2,1.3,1.3,0,0,1,.6,1.1l1-1.3c.2-.3.1-.5-.3-.7l.2-.2a5.8,5.8,0,0,0,1.5.6l-3.4,4.4C268.7,365.4,268.8,365.7,269.3,365.6Zm-.9-1.3,1.1-1.5a1.1,1.1,0,0,0-.6-1.2c-.8-.5-1.6.4-2.1,1.2s-.5,1.4,0,1.7A1.2,1.2,0,0,0,268.4,364.3Z"/>
          <path class="cls-17" d="M274.8,366.6a2.9,2.9,0,0,1-3.7,1.1c-.8-.5-1.3-1.3-.7-2.1l2.6-3.4q.3-.3-.3-.6l.2-.3a5.8,5.8,0,0,0,1.5.6l-1.1,1.4-.9,1,.3-.2a1.8,1.8,0,0,1,1.6.1C275.1,364.6,275.4,365.5,274.8,366.6Zm-.9-.5a1.2,1.2,0,0,0-.1-1.6,2,2,0,0,0-1.5.1l-1.1,1.4c-.4.6-.3,1,.3,1.3S273.4,367,273.9,366.1Z"/>
          <path class="cls-17" d="M275.9,369.5l-.4.4-.9-.2c-.3-.2-.3-.6-.1-1l1.8-2.2c.2-.3.1-.5-.3-.5l.2-.3a1.6,1.6,0,0,1,1,.2c.3.2.2.5,0,.9l-1.7,2.2C275.3,369.2,275.3,369.5,275.9,369.5Zm2.7-4.5a.7.7,0,0,1-.8.2.5.5,0,0,1-.1-.8.6.6,0,0,1,.8-.2A.5.5,0,0,1,278.6,365Z"/>
          <path class="cls-17" d="M279,369.9l-1.2-.5a1.1,1.1,0,0,0,.2,1.7,1.4,1.4,0,0,0,1.4.1v.5a2.7,2.7,0,0,1-1.9-.2,1.8,1.8,0,0,1-.6-2.6,2.6,2.6,0,0,1,3.4-1.2,1.5,1.5,0,0,1,.5,2.1C280.6,370.4,280.1,370.3,279,369.9Zm1.3-.6c.2-.4.2-.9-.2-1.1s-1.5,0-2,.8l1.6.6C279.9,369.7,280.1,369.5,280.3,369.3Z"/>
          <path class="cls-17" d="M284.7,371.2c-.7.2-.5-.2-.9-.4s-1.2.2-1.6.7l-1.4,1.8-.8-.4,2.3-3c.2-.2.1-.4-.3-.4l.2-.3.9.2c.3.2.2.6,0,.9l-.8.8.6-.5a1.6,1.6,0,0,1,1.8-.3C285.1,370.6,285.3,371,284.7,371.2Z"/>
        </g>
        <g>
          <path class="cls-14" d="M245.7,250.7a1.9,1.9,0,0,1-.2,1.2,2,2,0,0,1-1.4,1,4,4,0,0,1-2.1-.7l-1.8-1,3.3-6,1.6.8c1.6,1,2.2,1.9,1.6,3a1.4,1.4,0,0,1-.8.7,1.7,1.7,0,0,1-1,0A2.5,2.5,0,0,1,245.7,250.7Zm-2.1,1c.3,0,.5-.2.7-.5a1,1,0,0,0,.1-.9c-.1-.3-.4-.5-.8-.7l-.8-.5-1,1.9.7.4Zm.6-5-.9,1.6.7.4a1.5,1.5,0,0,0,.9.2c.2,0,.4-.2.6-.5a.6.6,0,0,0,0-.8,1.8,1.8,0,0,0-.8-.6Z"/>
          <path class="cls-14" d="M249.3,256.2l-1-.5.3-.7-.9.3-1-.3a1.3,1.3,0,0,1-.7-.9,1.7,1.7,0,0,1,.2-1.2l1.9-3.4,1.1.6-1.8,3.2c-.1.3-.2.5-.1.7a.5.5,0,0,0,.3.4,1.3,1.3,0,0,0,1.3-.2l1.8-3.2,1.1.6Z"/>
          <path class="cls-14" d="M256.1,254.5l-.8.4a2.4,2.4,0,0,0-1-1,.7.7,0,0,0-.6-.2l-.3.2a.4.4,0,0,0-.1.3.8.8,0,0,0,.2.4l.5.5a2.8,2.8,0,0,1,.8,1.2,1.4,1.4,0,0,1-.1,1.1,1.6,1.6,0,0,1-1.2.8,3.4,3.4,0,0,1-1.6-.4,2.2,2.2,0,0,1-.9-.7,2.4,2.4,0,0,1-.6-.9l.9-.4a4,4,0,0,0,1,1.2l.7.2.5-.3c0-.2.1-.3.1-.4l-.2-.4-.6-.6a2.3,2.3,0,0,1-.7-1.1,1.2,1.2,0,0,1,.1-1,1.7,1.7,0,0,1,.6-.6,1.4,1.4,0,0,1,.9-.1,1.9,1.9,0,0,1,1,.3A2.6,2.6,0,0,1,256.1,254.5Z"/>
          <path class="cls-14" d="M262.7,256a1.6,1.6,0,0,1,.3.9,1.5,1.5,0,0,1-.2.9,1.9,1.9,0,0,1-.8.7,2,2,0,0,1-1.1,0,2.5,2.5,0,0,1,.8,1,1.9,1.9,0,0,1-.2,1.2,3,3,0,0,1-.8.8l-1.1.2a2.4,2.4,0,0,1-1.3-.4,2.5,2.5,0,0,1-1.4-1.9l.9-.2a1.6,1.6,0,0,0,.4.7,1,1,0,0,0,.6.5,1.5,1.5,0,0,0,.9.2.9.9,0,0,0,.6-.6,1,1,0,0,0,.2-.9,1.4,1.4,0,0,0-.7-.6l-.5-.3.6-.7.3.2a1.2,1.2,0,0,0,.8.1,1.2,1.2,0,0,0,.7-.5.8.8,0,0,0,0-.7,1.3,1.3,0,0,0-.5-.6l-.7-.2h-.8l-.2-.9a3,3,0,0,1,2.3.2A2.4,2.4,0,0,1,262.7,256Z"/>
          <path class="cls-14" d="M267.1,258.3l-3.2,5.9-1.1-.6,2.6-4.8h-1.8v-1l2.5-.2Z"/>
          <path class="cls-14" d="M266.9,264.4a.6.6,0,0,1-.1.7l-.2.3-.4.3-1.3,1-.7-.4,1.2-1.3a.9.9,0,0,1,0-.7.7.7,0,0,1,.5-.4h.6C266.7,264.1,266.9,264.2,266.9,264.4Z"/>
          <path class="cls-14" d="M275.4,262.9a1.6,1.6,0,0,1,.3.9,1.5,1.5,0,0,1-.2.9,1.4,1.4,0,0,1-.8.7,2,2,0,0,1-1.1,0,2.5,2.5,0,0,1,.8,1,1.7,1.7,0,0,1-.2,1.2,2,2,0,0,1-.8.8,1.4,1.4,0,0,1-1.1.2l-1.3-.3a2.9,2.9,0,0,1-1.4-1.9l.9-.3.4.8a.9.9,0,0,0,.6.4,1,1,0,0,0,.9.2.9.9,0,0,0,.6-.6.9.9,0,0,0,.2-.8,1.2,1.2,0,0,0-.7-.7l-.5-.3.6-.7.3.2a1.2,1.2,0,0,0,.8.1c.3,0,.5-.2.7-.5a.9.9,0,0,0,0-.7.8.8,0,0,0-.5-.5.8.8,0,0,0-.7-.2c-.2-.1-.5,0-.8,0l-.2-.9a3.1,3.1,0,0,1,2.3.3A2.2,2.2,0,0,1,275.4,262.9Z"/>
          <path class="cls-14" d="M279.9,265.4a1.6,1.6,0,0,1,.3.9.8.8,0,0,1-.2.8,1.4,1.4,0,0,1-.7.8,2.4,2.4,0,0,1-1.2,0,1.5,1.5,0,0,1,.6,2.2,2,2,0,0,1-.8.8l-1.1.2a1.9,1.9,0,0,1-1.2-.4,2.6,2.6,0,0,1-1.5-1.9l1-.2.3.7c.2.2.3.4.6.5a1.5,1.5,0,0,0,.9.2,1.3,1.3,0,0,0,.7-.6,1,1,0,0,0,.1-.9,1.4,1.4,0,0,0-.7-.6l-.4-.3.5-.7.3.2a1.4,1.4,0,0,0,.9.1,1.3,1.3,0,0,0,.6-.5,2,2,0,0,0,.1-.7l-.6-.6-.7-.2H277l-.3-.9a3,3,0,0,1,2.3.2A2.4,2.4,0,0,1,279.9,265.4Z"/>
          <path class="cls-14" d="M280.4,271.8a1.3,1.3,0,0,1-.1.6l-.3.3-.4.3-1.3,1-.6-.3,1.1-1.4a.6.6,0,0,1,.1-.7.8.8,0,0,1,.4-.4.6.6,0,0,1,.6.1A.6.6,0,0,1,280.4,271.8Z"/>
          <path class="cls-14" d="M289.6,270.6l-.4.7-5,4.1-.9-.9,4.7-3.7-2.5-1.4.5-.8Z"/>
          <path class="cls-14" d="M292.8,272.4a1.9,1.9,0,0,1,.3,1,2,2,0,0,1-.2,1,2,2,0,0,1-.8.8l-1.2.6a16.3,16.3,0,0,1-2.3.7l2.5,1.4-.6.8-3.7-2,.5-.8,2.5-.8,1.2-.6a2.3,2.3,0,0,0,.7-.7c.1-.3.2-.5.1-.7s-.2-.5-.5-.6l-.7-.2-.8.2-.4-.9a2.8,2.8,0,0,1,2.5,0A3.6,3.6,0,0,1,292.8,272.4Z"/>
          <path class="cls-14" d="M293.2,278.8a.7.7,0,0,1-.1.6c0,.1-.1.2-.2.3l-.4.3-1.3,1-.7-.3,1.2-1.4c-.2-.2-.1-.4,0-.7a1,1,0,0,1,.5-.4.7.7,0,0,1,.6.1A.7.7,0,0,1,293.2,278.8Z"/>
          <path class="cls-14" d="M303.3,277.8l-.6.9-1.6-.9-2.8,5.2-1.1-.7,2.8-5.1-1.7-.9.5-.9Z"/>
          <path class="cls-14" d="M305.9,281l-.8,1-.4-.3a.8.8,0,0,0-.8-.1,2.8,2.8,0,0,0-.9.7l-1.3,2.5-1.2-.6,2.6-4.7.9.6-.4.9a3.1,3.1,0,0,1,1-.5,1.2,1.2,0,0,1,.8.2Z"/>
          <path class="cls-14" d="M307.7,287c0,.1.1.2.2.4l-.7.6-.5-.6a.8.8,0,0,1-.1-.7,1.5,1.5,0,0,1-.9.2l-.9-.2a1.7,1.7,0,0,1-.9-1,1.5,1.5,0,0,1,.2-1.3,1.2,1.2,0,0,1,1.1-.8,3,3,0,0,1,1.8.4l.6.3.2-.2a1.2,1.2,0,0,0,.1-.8c-.1-.2-.3-.3-.6-.5a4,4,0,0,0-1.3-.4v-.9l1.9.5c1.2.7,1.5,1.6.9,2.6l-1.1,2A.6.6,0,0,0,307.7,287Zm-1-1.1.6-.9-.5-.3q-1.1-.6-1.5.3a.7.7,0,0,0-.2.6l.4.4A1.1,1.1,0,0,0,306.7,285.9Z"/>
          <path class="cls-14" d="M316.8,287.3a2.1,2.1,0,0,1-.2,1.3l-1.9,3.3-1.1-.6,1.7-3.2c.3-.5.3-.8-.1-1h-.5l-.7.3-1.8,3.2-1.1-.6,1.7-3.2c.3-.4.3-.8-.1-1h-.6l-.6.3-1.8,3.3-1.1-.6,2.5-4.7,1,.5-.3.7a1.9,1.9,0,0,1,1.8,0,1.7,1.7,0,0,1,.6.6,1.9,1.9,0,0,1,.1.8,1.5,1.5,0,0,1,.9-.2,1,1,0,0,1,.9.2A1.3,1.3,0,0,1,316.8,287.3Z"/>
          <path class="cls-14" d="M323.2,294.5a2.7,2.7,0,0,1-.8.7l-1.1.2a3.8,3.8,0,0,1-1.3-.4,4.3,4.3,0,0,1-1-.9,1.8,1.8,0,0,1-.4-1,1.8,1.8,0,0,1,2.2-1.9,1.5,1.5,0,0,1-.2-1.8,1.2,1.2,0,0,1,.7-.7,1.8,1.8,0,0,1,1-.2l1.1.4a1.6,1.6,0,0,1,.9.7,1.3,1.3,0,0,1,.4.9,1.5,1.5,0,0,1-.2.9,1.7,1.7,0,0,1-1.7.8A2.2,2.2,0,0,1,323.2,294.5Zm-1.8-.2a.6.6,0,0,0,.6-.5.6.6,0,0,0,.1-.7,1.2,1.2,0,0,0-.6-.9l-.2-.3a1.4,1.4,0,0,0-1.3.8.8.8,0,0,0-.1.8,1.3,1.3,0,0,0,.6.7A1.4,1.4,0,0,0,321.4,294.3Zm.8-4.8a.8.8,0,0,0-.5.5.7.7,0,0,0-.1.6,1.8,1.8,0,0,0,.5.8h.8a1.2,1.2,0,0,0,.5-.5c.1-.3.2-.5.1-.7l-.5-.6Z"/>
        </g>
        <g>
          <path class="cls-17" d="M262.7,128.8a1.4,1.4,0,0,1-.2,1.2,2,2,0,0,1-1.4,1,5.2,5.2,0,0,1-2.1-.7l-1.8-1.1,3.5-5.9,1.5.9c1.7.9,2.2,1.9,1.6,2.9a1.3,1.3,0,0,1-.8.7,1.7,1.7,0,0,1-1,0A2.3,2.3,0,0,1,262.7,128.8Zm-2.1,1c.3,0,.5-.2.7-.5s.3-.7.1-1a1.5,1.5,0,0,0-.7-.7l-.8-.4-1.1,1.8.7.4A1.9,1.9,0,0,0,260.6,129.8Zm.7-5-.9,1.6.7.4a1.5,1.5,0,0,0,.9.2c.2,0,.4-.2.6-.5a.6.6,0,0,0,.1-.7,1.9,1.9,0,0,0-.8-.7Z"/>
          <path class="cls-17" d="M265.9,134.3l1.6-2.7-2.2-1.2-1.5,2.6-1.2-.6,3.5-6,1.1.7-1.3,2.4,2.1,1.2,1.4-2.4,1.1.6-3.4,6Z"/>
          <path class="cls-17" d="M297.1,152.3l1.6-2.7-2.2-1.2L295,151l-1.2-.6,3.5-6,1.1.7-1.3,2.4,2.1,1.2,1.4-2.4,1.1.6-3.4,6Z"/>
          <path class="cls-17" d="M303.7,155c0,.1.1.2.1.3l-.6.6a.8.8,0,0,1-.5-.5.9.9,0,0,1-.1-.7,1.4,1.4,0,0,1-.9.1l-.9-.2a2.1,2.1,0,0,1-.9-1,1.9,1.9,0,0,1,.2-1.3,1.4,1.4,0,0,1,1.2-.8,2.8,2.8,0,0,1,1.8.5l.6.3V152a1.1,1.1,0,0,0,.2-.7l-.6-.6-1.3-.4.2-.9a5.5,5.5,0,0,1,1.8.6c1.2.7,1.5,1.6.9,2.6l-1.2,1.9A1.1,1.1,0,0,0,303.7,155Zm-.9-1.1.5-.9-.5-.3c-.7-.4-1.2-.4-1.5.2a.7.7,0,0,0-.1.6c0,.2.1.3.4.4A1.3,1.3,0,0,0,302.8,153.9Z"/>
          <path class="cls-17" d="M310,153.5l-.8,1-.4-.3a.8.8,0,0,0-.8-.1l-.9.7-1.4,2.4-1.1-.6,2.7-4.6.9.6-.4.9.9-.5a1.5,1.5,0,0,1,.9.2Z"/>
          <path class="cls-17" d="M315.5,154.3l-3.7,6.4-1-.6.2-.6a1.1,1.1,0,0,1-.8.2l-.9-.2a1.7,1.7,0,0,1-.9-1.4,2.7,2.7,0,0,1,.6-2,3.8,3.8,0,0,1,.9-1.2l1.2-.5a2.3,2.3,0,0,1,1.1.3,1.9,1.9,0,0,1,.9,1.2l1.3-2.4Zm-4.8,4.7.7-.2,1.2-2.1a.8.8,0,0,0-.2-.6.8.8,0,0,0-.4-.4.8.8,0,0,0-.9,0,2.4,2.4,0,0,0-1,1,3,3,0,0,0-.4,1.4.7.7,0,0,0,.4.7Z"/>
          <path class="cls-17" d="M319.2,159.6a3.5,3.5,0,0,1-.6,2,3.5,3.5,0,0,1-.9,1.1,2.1,2.1,0,0,1-1.2.5,1.5,1.5,0,0,1-1.1-.2l-.6-.6-.3-.7-.3.4-1-.5,3.7-6.5,1.2.6-1.4,2.4h.8l.8.2A1.9,1.9,0,0,1,319.2,159.6Zm-2.7,2.4a3.7,3.7,0,0,0,1-1.1,2.7,2.7,0,0,0,.4-1.3.9.9,0,0,0-.4-.8,1.5,1.5,0,0,0-1.3.1L315,161a1.4,1.4,0,0,0,.2.6c.1.1.2.3.4.4A.7.7,0,0,0,316.5,162Z"/>
          <path class="cls-17" d="M323.9,161.5l-.8,1-.4-.3a1.1,1.1,0,0,0-.8-.1c-.3.1-.5.4-.9.7l-1.4,2.5-1.1-.7,2.7-4.6.9.6-.4.9a1.8,1.8,0,0,1,.9-.4,1.4,1.4,0,0,1,.9.1Z"/>
          <path class="cls-17" d="M325.7,168.8l-.9-.6.3-.7-1,.3-.9-.3a1.3,1.3,0,0,1-.7-.9,1.7,1.7,0,0,1,.3-1.3l1.9-3.3,1.1.7-1.9,3.1c-.1.3-.2.5-.1.7a.5.5,0,0,0,.3.4,1.5,1.5,0,0,0,1.3-.1l1.9-3.3,1.1.7Zm1.5-8a1.1,1.1,0,0,1-.1.5.5.5,0,0,1-.4.3.7.7,0,0,1-.6-.1c-.1-.1-.3-.2-.3-.4s0-.3.1-.5.2-.3.4-.3a.4.4,0,0,1,.5,0A1,1,0,0,1,327.2,160.8Zm1.9,1.1a.9.9,0,0,1-.1.5c-.1.2-.2.3-.4.3a.4.4,0,0,1-.5-.1.8.8,0,0,1-.4-.4.9.9,0,0,1,.1-.5c.1-.2.2-.3.4-.3a.4.4,0,0,1,.5.1Z"/>
          <path class="cls-17" d="M332.5,166.6a2,2,0,0,1,.4.8l-.9.3c0-.2-.1-.3-.3-.5l-.4-.3c-.7-.4-1.3-.1-1.9,1a1.8,1.8,0,0,0-.4,1.3.8.8,0,0,0,.5.7l.5.2h.7v.9a2.5,2.5,0,0,1-1.7-.3,2.2,2.2,0,0,1-1-.9,2.8,2.8,0,0,1-.3-1.3,3.9,3.9,0,0,1,.5-1.4,2.7,2.7,0,0,1,1-1.1,2.1,2.1,0,0,1,1.2-.5,2,2,0,0,1,1.3.4A1.6,1.6,0,0,1,332.5,166.6Z"/>
          <path class="cls-17" d="M336.3,166.2l-3.7,6.5-1.1-.6,3.7-6.4Zm1.7,3.5-2.7,1.2.2,3.5-1.3-.7-.2-3.5,2.8-1.2Z"/>
          <path class="cls-17" d="M341,175l-2.9-1.7a1.9,1.9,0,0,0-.2,1.2,1.3,1.3,0,0,0,.6.7l.6.2h.8v.8a3,3,0,0,1-2.1-.3,2.1,2.1,0,0,1-1.2-1.6,2.8,2.8,0,0,1,.4-2.1,5.2,5.2,0,0,1,1-1.1,3.1,3.1,0,0,1,1.2-.5,2.4,2.4,0,0,1,1.3.4,1.9,1.9,0,0,1,1.1,1.4,3,3,0,0,1-.4,2A1.1,1.1,0,0,0,341,175Zm-.7-1.4c.5-.8.4-1.4-.2-1.7a.8.8,0,0,0-.8-.1l-.8.8,1.8,1Z"/>
        </g>
        <g>
          <line class="cls-4" x1="35" y1="189.8" x2="42.4" y2="178.5"/>
          <polygon class="cls-17" points="44.8 186.1 43.3 186.3 42.1 179 34.9 180.8 34.5 179.4 43.3 177.2 44.8 186.1"/>
        </g>
        <circle class="cls-21" cx="113.3" cy="143.3" r="3"/>
        <circle class="cls-21" cx="174.3" cy="294.5" r="3"/>
        <g>
          <path class="cls-21" d="M114.2,117.4a2,2,0,0,1,1.1.3,3.2,3.2,0,0,1,.8.9,2.8,2.8,0,0,1,.1,1.3,5.3,5.3,0,0,1-.6,1.4,3.6,3.6,0,0,1-1,1.1l-1.2.3a1.1,1.1,0,0,1-1.1-.3,1.9,1.9,0,0,1-.8-2.2,2,2,0,0,1-2.1,0,2.7,2.7,0,0,1-.7-.8,2.4,2.4,0,0,1,0-1.2,2.8,2.8,0,0,1,.4-1.2,3.1,3.1,0,0,1,1.4-1.2,1.8,1.8,0,0,1,2.3,2.1A4.8,4.8,0,0,1,114.2,117.4Zm-4.4,1a1.3,1.3,0,0,0,.5.6.8.8,0,0,0,.7.1l.8-.4h.2a1.9,1.9,0,0,0-.2-.8,1.1,1.1,0,0,0-1.2-.6c-.2,0-.4.2-.6.4A2.4,2.4,0,0,0,109.8,118.4Zm5.1,1.3a.8.8,0,0,0-.4-.6.9.9,0,0,0-.8-.2,1.9,1.9,0,0,0-1,.5l-.3.2a1.5,1.5,0,0,0,.7,1.5.8.8,0,0,0,.8.1,1.2,1.2,0,0,0,.8-.6A1,1,0,0,0,114.9,119.7Z"/>
          <path class="cls-21" d="M113,111.3l6.3,4.1-.9,1.2-4.9-3.2v2h-1.2v-2.9Z"/>
          <path class="cls-21" d="M118.5,107a4.6,4.6,0,0,1,2.2.8,4.3,4.3,0,0,1,1.2,1.1,3.5,3.5,0,0,1,.5,1.3,1.9,1.9,0,0,1-.4,1.2,1.5,1.5,0,0,1-1.4.9l.4.4-.8,1.2-6.8-4.5.7-1.4,2.6,1.7a2.8,2.8,0,0,1-.1-.9,1.6,1.6,0,0,1,.3-.9A2.4,2.4,0,0,1,118.5,107Zm1.3,2.2a3,3,0,0,0-1.4-.6.9.9,0,0,0-.8.4,1.5,1.5,0,0,0,0,1.3l2.1,1.4a1.3,1.3,0,0,0,1.1-.5C121.2,110.5,120.9,109.9,119.8,109.2Z"/>
          <path class="cls-21" d="M123.2,106.6a.8.8,0,0,1,.7.1l.4.3a2.1,2.1,0,0,0,.4.6l.9,1.5-.5.7-1.3-1.4h-.4l-.5-.2a.9.9,0,0,1-.4-.6,1.7,1.7,0,0,1,.1-.7Z"/>
          <path class="cls-21" d="M122.4,97.2a2,2,0,0,1,1.1-.3,2.1,2.1,0,0,1,1,.4l.8.8a3,3,0,0,1,.6,1.4,20.7,20.7,0,0,1,.6,2.6l1.7-2.7.9.8-2.6,4-.9-.6c-.3-1.3-.5-2.2-.7-2.8a3.8,3.8,0,0,0-.5-1.4,2.3,2.3,0,0,0-.7-.7,1,1,0,0,0-.7-.2,1.2,1.2,0,0,0-.7.5,1.4,1.4,0,0,0-.2.7,3.4,3.4,0,0,0,.1.9l-1.1.3a2.7,2.7,0,0,1,.3-2.7A3.2,3.2,0,0,1,122.4,97.2Z"/>
          <path class="cls-21" d="M129.3,97.3a.8.8,0,0,1,.7.1c.2.2.4.4.4.6a.8.8,0,0,1-.1.7c-.2.2-.4.4-.6.4a.8.8,0,0,1-.7-.1c-.2-.2-.4-.3-.4-.6a.8.8,0,0,1,.1-.7A.7.7,0,0,1,129.3,97.3Z"/>
          <path class="cls-21" d="M129.3,86.5a2.7,2.7,0,0,1,1.8-.3,5,5,0,0,1,2,.9,4.6,4.6,0,0,1,1.6,1.5,3.4,3.4,0,0,1,.5,1.7,3.2,3.2,0,0,1-.6,1.8,3.4,3.4,0,0,1-3.2,1.5,5,5,0,0,1-2-.9,3.6,3.6,0,0,1-1.5-1.5,2.7,2.7,0,0,1-.6-1.7,4.3,4.3,0,0,1,.6-1.8A3.1,3.1,0,0,1,129.3,86.5Zm-.5,3.3a3.5,3.5,0,0,0,1.5,1.5,4.8,4.8,0,0,0,2,.8,1.4,1.4,0,0,0,1.3-.7,1.4,1.4,0,0,0,.1-1.4,3.5,3.5,0,0,0-1.5-1.5,4.3,4.3,0,0,0-2-.8,1.5,1.5,0,0,0-1.3.7A1.4,1.4,0,0,0,128.8,89.8Z"/>
          <path class="cls-21" d="M133.1,80.1l1.2-.5.3,1.2a2,2,0,0,0-.8.4,1.7,1.7,0,0,0-.6.6,1.9,1.9,0,0,0-.2,1.5,3.2,3.2,0,0,0,1.5,1.6,4.3,4.3,0,0,0,2,.8,1.6,1.6,0,0,0,1.3-.7,2.3,2.3,0,0,0,.3-1.1l-1.5-1-.6.9-1.1-.5,1.6-2.4,3.1,2.1a5.9,5.9,0,0,1-.2,1.3l-.6,1.3a3,3,0,0,1-2.2,1.6,4.7,4.7,0,0,1-3-.9,5.8,5.8,0,0,1-1.6-1.5,4.1,4.1,0,0,1-.4-1.9,2.7,2.7,0,0,1,.6-1.7A5.3,5.3,0,0,1,133.1,80.1Z"/>
        </g>
        <g>
          <path class="cls-17" d="M49.1,172.2l-1.4-.4-1,1.6,1,1.1-.7,1.1-4.3-4.9.8-1.3,6.3,1.6Zm-3.1.5.8-1.2-2.9-.9Z"/>
          <path class="cls-17" d="M52.2,167.2l-.6.9-.6-.3a1.5,1.5,0,0,1,.2.9,3.1,3.1,0,0,1-.2.8c-.3.3-.6.6-.9.6a1.3,1.3,0,0,1-1.1-.3L46.1,168l.6-1.1,2.8,1.8c.2.1.4.2.5.1a.5.5,0,0,0,.4-.2,1.1,1.1,0,0,0-.1-1.1l-2.8-1.7.6-1.1Z"/>
          <path class="cls-17" d="M54.2,163.5a2,2,0,0,1-.1.7,1.4,1.4,0,0,1-.2.6,1.7,1.7,0,0,1-1,.7,1.4,1.4,0,0,1-1.2-.3l-2-1.3-.4.6-.8-.4.4-.6-.9-.6.5-1.2,1.1.7.5-1,.7.6-.5.8,2,1.3h.5l.3-.2a.8.8,0,0,0,.2-.5Z"/>
          <path class="cls-17" d="M52.9,157.9a2.7,2.7,0,0,1,1.9.4,2.4,2.4,0,0,1,1,1,1.5,1.5,0,0,1,.4,1.1,2.8,2.8,0,0,1-.4,1.2,2.3,2.3,0,0,1-1.5,1.1,2.4,2.4,0,0,1-1.9-.5,2,2,0,0,1-.9-.9,1.5,1.5,0,0,1-.4-1.1,1.9,1.9,0,0,1,.4-1.2A1.9,1.9,0,0,1,52.9,157.9Zm-.7,2.4.9.8a2.4,2.4,0,0,0,1.2.4.8.8,0,0,0,.7-.4c.1-.3.2-.5,0-.8s-.4-.5-.9-.8a1.9,1.9,0,0,0-1.1-.4.9.9,0,0,0-.8,1.2Z"/>
        </g>
        <g>
          <path class="cls-17" d="M162.4,123l4.4,4.8-.8,1.3-6.3-1.6.7-1.2,5.1,1.6-3.8-3.8Z"/>
          <path class="cls-17" d="M168.3,121.5l-1.5,2.5c.4.2.7.3.9.2a1.8,1.8,0,0,0,.7-.5,1.4,1.4,0,0,0,.2-.6,1.6,1.6,0,0,0,0-.7h.9a2.6,2.6,0,0,1-.4,1.9,2.1,2.1,0,0,1-1.4,1.1,2.7,2.7,0,0,1-1.9-.5,2.2,2.2,0,0,1-1-.9,2.1,2.1,0,0,1-.4-1.1,2.7,2.7,0,0,1,.3-1.2,2.6,2.6,0,0,1,1.4-1,2.5,2.5,0,0,1,1.8.5Zm-1.3.6c-.7-.4-1.2-.4-1.5.1a.8.8,0,0,0-.1.7,2.2,2.2,0,0,0,.7.7l.9-1.5Z"/>
          <path class="cls-17" d="M170.6,121.3a1.2,1.2,0,0,1-1-.2l-4.7-2.9.5-1.2,4.8,3c.2.1.3.1.4-.1v-.2l.9.2a1.1,1.1,0,0,1-.3.8C171.1,121.1,170.9,121.3,170.6,121.3Z"/>
          <path class="cls-17" d="M170.3,114a2.9,2.9,0,0,1,1.9.5l1,.9a2.7,2.7,0,0,1,.3,1.2,1.9,1.9,0,0,1-.4,1.2,1.8,1.8,0,0,1-1.4,1,2.3,2.3,0,0,1-1.9-.4,4.5,4.5,0,0,1-1-.9,2.6,2.6,0,0,1,0-2.4A2.3,2.3,0,0,1,170.3,114Zm-.7,2.4a1.5,1.5,0,0,0,.9.8,2.1,2.1,0,0,0,1.1.5.8.8,0,0,0,.7-.4.8.8,0,0,0,.1-.8l-.9-.9a2.4,2.4,0,0,0-1.2-.4.8.8,0,0,0-.7.4A1.1,1.1,0,0,0,169.6,116.4Z"/>
          <path class="cls-17" d="M178.3,109.1l-5.3-3.2,1.9-3.1.7.6-1.1,1.8,1.5,1,1-1.6.8.5-1,1.6L179,108Z"/>
          <path class="cls-17" d="M182.5,102.3l-.6,1-.6-.3a2.4,2.4,0,0,1,.2.8,1.1,1.1,0,0,1-.3.8,1.3,1.3,0,0,1-.8.7,2.3,2.3,0,0,1-1.1-.3l-3-1.8.7-1.1,2.8,1.7.5.2a.5.5,0,0,0,.4-.3,1.2,1.2,0,0,0-.1-1l-2.9-1.8.7-1.1Z"/>
          <path class="cls-17" d="M181.2,96.1l.4.8a2.1,2.1,0,0,0-1,.8,1.1,1.1,0,0,0-.1.5.4.4,0,0,0,.1.3h.3l.3-.2.5-.4a2.3,2.3,0,0,1,1.1-.7,1.3,1.3,0,0,1,1,.2,1.8,1.8,0,0,1,.5.7,1.4,1.4,0,0,1,.1.9,4.2,4.2,0,0,1-.4,1,2.7,2.7,0,0,1-.7.8l-.9.5-.3-.9a2,2,0,0,0,1.1-.9,1.7,1.7,0,0,0,.2-.5.5.5,0,0,0-.2-.4h-.7l-.5.5-1,.6a1.2,1.2,0,0,1-1-.2,1.2,1.2,0,0,1-.5-.5,2.8,2.8,0,0,1-.1-.9,3.6,3.6,0,0,1,.4-.9A2.4,2.4,0,0,1,181.2,96.1Z"/>
          <path class="cls-17" d="M183.4,92.5l.4.8a1.8,1.8,0,0,0-.9.8c-.2.2-.2.3-.2.4a.5.5,0,0,0,.2.4h.5l.6-.5a2.7,2.7,0,0,1,1-.6,1.2,1.2,0,0,1,1,.2,1.2,1.2,0,0,1,.6.6,1.4,1.4,0,0,1,0,.9,1.7,1.7,0,0,1-.3,1,3.6,3.6,0,0,1-.8.9l-.9.4-.2-.9a2.3,2.3,0,0,0,1.1-.8,1.3,1.3,0,0,0,.1-.6c0-.2,0-.3-.2-.4h-.3l-.3.2a2.3,2.3,0,0,0-.5.5l-1.1.6a1.5,1.5,0,0,1-.9-.2,1,1,0,0,1-.5-.6,1.1,1.1,0,0,1-.1-.8,2.2,2.2,0,0,1,.3-1A3.6,3.6,0,0,1,183.4,92.5Z"/>
        </g>
      </g>
    </g>
  </g>
</svg>
