<svg xmlns="http://www.w3.org/2000/svg" width="300" height="300" viewBox="0 0 300 300">
  <defs>
    <style>
      .cls-1 {
        fill: #f5f5f5;
      }

      .cls-2 {
        fill: none;
        stroke: #ed1847;
        stroke-miterlimit: 10;
        stroke-width: 10px;
      }
    </style>
  </defs>
  <title>package</title>
  <g id="Layer_2" data-name="Layer 2">
    <g id="Layer_2-2" data-name="Layer 2">
      <g>
        <rect class="cls-1" width="300" height="300"/>
        <g>
          <polygon class="cls-2" points="153.2 48.1 62.3 100.5 62.3 205.5 153.2 257.9 244 205.5 244 100.5 153.2 48.1"/>
          <polyline class="cls-2" points="62.3 100.5 153.2 151 244 100.5"/>
          <line class="cls-2" x1="153.2" y1="148.5" x2="153.2" y2="257.9"/>
        </g>
        <polyline class="cls-2" points="111.5 71 205.5 123 205.5 228"/>
        <polyline class="cls-2" points="192.5 71 104.5 124 103.5 226"/>
        <path class="cls-2" d="M106.3,93.2C89.6,86.3,83.2,71.5,90.6,58.9s23.4-14.6,38.2-4.2c12,8.5,21,38.8,21,38.8S120.3,99,106.3,93.2Z"/>
        <path class="cls-2" d="M193.3,93.2c16.7-6.9,23-21.7,15.7-34.3s-23.4-14.6-38.2-4.2c-12,8.5-21,38.8-21,38.8S179.3,99,193.3,93.2Z"/>
      </g>
    </g>
  </g>
</svg>
