<svg xmlns="http://www.w3.org/2000/svg" width="75.6mm" height="13.5mm" viewBox="0 0 214.2 38.4">
  <defs>
    <style>
      .cls-1a, .cls-2a {
        fill: #160e44;
      }

      .cls-2a {
        stroke: #160e44;
        stroke-miterlimit: 10;
        stroke-width: 0.25px;
      }
      .cls-1b, .cls-2b {
        fill: #160e44;
        display: none;
      }

      .cls-2b {
        stroke: #160e44;
        stroke-miterlimit: 10;
        stroke-width: 0.25px;
        display: none;
      }

    </style>
  </defs>
  <title>franklin-logo</title>
  <g id="studiofranklin-logo">
        <g>
            <path class="cls-1a" d="M394.1,300.4a10.3,10.3,0,0,1,0-10,4.2,4.2,0,0,1,3.2-1.5,4.4,4.4,0,0,1,3.3,1.5c.9,1,1.3,2.7,1.3,4.9s-.4,3.9-1.3,5a3.8,3.8,0,0,1-3.2,1.6,4.3,4.3,0,0,1-3.3-1.5m8.5,1.2a9.1,9.1,0,0,0,2.1-6.2,9.7,9.7,0,0,0-1.9-6.2,6.6,6.6,0,0,0-5.4-2.4,6.8,6.8,0,0,0-5.2,2.3,9,9,0,0,0-2.1,6.2,10.1,10.1,0,0,0,1.8,6.2,6.2,6.2,0,0,0,5.3,2.5,6.8,6.8,0,0,0,5.4-2.4m-20.2,2H385V287.2h-2.6Zm-8.9-6.7a5,5,0,0,1-1.4,3.5,4,4,0,0,1-3.1,1.5,3.7,3.7,0,0,1-3.1-1.7,9.5,9.5,0,0,1-1.1-5,8,8,0,0,1,1.2-4.7,3.8,3.8,0,0,1,3.1-1.7,4.2,4.2,0,0,1,3.1,1.3,4.9,4.9,0,0,1,1.3,3.4Zm0-15.4v8a5.8,5.8,0,0,0-9.7-.2,10.1,10.1,0,0,0-1.8,6.2,9.8,9.8,0,0,0,1.8,6.1,5.8,5.8,0,0,0,4.8,2.4,5.5,5.5,0,0,0,5.1-3.2v2.8H376V281.5Zm-16.6,5.7h-2.6v9.2a6.4,6.4,0,0,1-.6,2.8,4.9,4.9,0,0,1-1.7,2,3.6,3.6,0,0,1-2.2.7,3.1,3.1,0,0,1-2.2-.9c-.7-.6-1-1.7-1-3.3V287.2H344v10.5a7.3,7.3,0,0,0,1.4,4.7,5.1,5.1,0,0,0,4,1.6c2.3,0,4-1.2,5.2-3.6v3.2h2.3Zm-19,14.8c-1.7,0-2.6-.8-2.6-2.5V289.2H339v-2h-3.7v-4.3l-2.3.2v4.1H330v2h2.9v9.9c0,3.3,1.5,4.9,4.7,4.9a10.2,10.2,0,0,0,2.3-.2v-2l-2,.2m-17.1,2a8.5,8.5,0,0,0,5-1.4,4.3,4.3,0,0,0,1.8-3.6c0-2.6-1.6-4.2-5-4.8l-3.2-.6c-1.6-.3-2.5-1.1-2.5-2.3a1.9,1.9,0,0,1,1-1.8,4.9,4.9,0,0,1,2.5-.6c2.1,0,3.5.8,4.2,2.5l2.3-.5c-.8-2.7-3-4.1-6.6-4.1a6.3,6.3,0,0,0-4.4,1.4,4.1,4.1,0,0,0-1.6,3.4,4.1,4.1,0,0,0,1.2,3,7.3,7.3,0,0,0,3.2,1.5l3.5.7c1.8.3,2.8,1.1,2.8,2.4a2.3,2.3,0,0,1-1.1,2,5,5,0,0,1-2.7.7c-2.9,0-4.6-1-5.1-3.1l-2.5.5c1,3.1,3.3,4.7,7.2,4.7" transform="translate(-313.6 -274.5)"/>
            <path class="cls-1a" d="M506.9,285.2a2,2,0,0,0,1.9-1.9,1.9,1.9,0,0,0-1.9-1.8,1.8,1.8,0,0,0-1.8,1.8,1.9,1.9,0,0,0,1.8,1.9" transform="translate(-313.6 -274.5)"/>
                <g>
                  <path class="cls-1a" d="M431.4,287.9a6.6,6.6,0,0,0-1.9,3.3v-3.9h-3.4v16.3h3.7v-7.5a7.6,7.6,0,0,1,.9-3.5c.6-1.2,1.9-1.8,3.7-1.8v-3.9h-.5A4,4,0,0,0,431.4,287.9Z" transform="translate(-313.6 -274.5)"/>
                  <path class="cls-1a" d="M416.1,282.7a5.8,5.8,0,0,0-1.2,3.8v.8h-2.4v2.9h2.4v13.4h3.6V290.2h3.6v-2.9h-3.6a9.8,9.8,0,0,1,.1-2,1.3,1.3,0,0,1,.7-.8,3,3,0,0,1,1.9-.4h.9v-2.9h-1.3C418.4,281.2,416.9,281.7,416.1,282.7Z" transform="translate(-313.6 -274.5)"/>
                  <path class="cls-1a" d="M497.5,301.8a2.5,2.5,0,0,1,1.8.8h0v-21h-3.7v21A2.6,2.6,0,0,1,497.5,301.8Z" transform="translate(-313.6 -274.5)"/>
                  <polygon class="cls-1a" points="162.1 29.1 165.6 29.1 165.6 24.8 165.6 7.1 162.1 7.1 162.1 29.1"/>
                  <rect class="cls-1a" x="191.4" y="12.8" width="3.7" height="16.27"/>
                  <path class="cls-1a" d="M451.8,293a10.5,10.5,0,0,0-.3-3,4.2,4.2,0,0,0-1.1-1.6,4.9,4.9,0,0,0-2-1.1,13.5,13.5,0,0,0-3.1-.3,8.8,8.8,0,0,0-5.3,1.3,4.4,4.4,0,0,0-2.1,3.3l3.1.5c.3-1.7,1.6-2.5,3.8-2.5s3.5.8,3.5,2.5v1.2h-1.1c-6.6,0-9.8,1.9-9.8,5.6a4.9,4.9,0,0,0,1.4,3.6,5.2,5.2,0,0,0,3.9,1.4,5.6,5.6,0,0,0,5.6-3.6,11.4,11.4,0,0,0,.5,3.3h3.5a12.6,12.6,0,0,1-.5-3.3Zm-3.5,3.8a4.6,4.6,0,0,1-1.1,3,3.9,3.9,0,0,1-3.2,1.4,3.4,3.4,0,0,1-2.2-.7,2.9,2.9,0,0,1-.7-1.8c0-2.2,2.4-3.4,7.2-3.4Z" transform="translate(-313.6 -274.5)"/>
                  <path class="cls-1a" d="M526.4,288.3a5.6,5.6,0,0,0-3.7-1.3c-2.1,0-3.8,1.4-4.9,4.1v-3.8h-3.4v16.3h3.7v-8.4a5.1,5.1,0,0,1,1.1-3.7,3,3,0,0,1,2.5-1.3,2.5,2.5,0,0,1,1.8.8,3.6,3.6,0,0,1,.7,2.4v10.2h3.7V293.1Q527.9,289.7,526.4,288.3Z" transform="translate(-313.6 -274.5)"/>
                  <path class="cls-1a" d="M465.8,287c-2.1,0-3.7,1.4-4.9,4.1v-3.8h-3.4v16.3h3.7v-8.4a5.6,5.6,0,0,1,1.1-3.7,3.1,3.1,0,0,1,2.5-1.3,2.5,2.5,0,0,1,1.8.8,3.6,3.6,0,0,1,.7,2.4v10.2H471V293.1q0-3.5-1.5-4.8A5.2,5.2,0,0,0,465.8,287Z" transform="translate(-313.6 -274.5)"/>
                </g>
            <path class="cls-1a" d="M383.6,284.7a1.5,1.5,0,0,0,0-3,1.5,1.5,0,0,0,0,3" transform="translate(-313.6 -274.5)"/>
            <path class="cls-2a" d="M497.5,304.4a1.8,1.8,0,0,0-1.8,1.9c0,1.4,1.8,1.5,1.8,2.9a2.1,2.1,0,0,1-2.2,2.2c-4.6.2-8.6-10.1-11.9-18.7,1.7-2.6,4-3.8,5.5-3.8s1.7.2,1.7.9-1.6,1.6-1.5,3a1.5,1.5,0,0,0,1.7,1.5c1.3,0,2.2-1.4,2.1-3.1a3.4,3.4,0,0,0-3.8-3.3c-3.1.1-6.7,3-8.4,8.2,3.3,8.5,6.4,17,13.4,16.7a5.5,5.5,0,0,0,5.5-6,2.2,2.2,0,0,0-2.1-2.4" transform="translate(-313.6 -274.5)"/>
        </g>
  </g>
  <g id="studiofranklin-logo-hover">
        <g>
            <path class="cls-1b" d="M394.1,300.4a10.3,10.3,0,0,1,0-10,4.2,4.2,0,0,1,3.2-1.5,4.4,4.4,0,0,1,3.3,1.5c.9,1,1.3,2.7,1.3,5s-.4,3.9-1.3,4.9a3.8,3.8,0,0,1-3.2,1.6,4.3,4.3,0,0,1-3.3-1.5m8.5,1.2a9.1,9.1,0,0,0,2.1-6.2,9.3,9.3,0,0,0-1.9-6.1,6.4,6.4,0,0,0-5.4-2.5,6.8,6.8,0,0,0-5.2,2.3,9.2,9.2,0,0,0-2.1,6.3,10,10,0,0,0,1.8,6.1,6.2,6.2,0,0,0,5.3,2.5,6.8,6.8,0,0,0,5.4-2.4m-20.2,2H385V287.3h-2.6Zm-8.9-6.7a5,5,0,0,1-1.4,3.5,4,4,0,0,1-3.1,1.5,3.5,3.5,0,0,1-3.1-1.7,9.5,9.5,0,0,1-1.1-5,8,8,0,0,1,1.2-4.7,3.8,3.8,0,0,1,3.1-1.7,4.6,4.6,0,0,1,3.1,1.3,5,5,0,0,1,1.3,3.5Zm0-15.4v8a5.8,5.8,0,0,0-9.7-.2,10.4,10.4,0,0,0-1.8,6.3,9.7,9.7,0,0,0,1.8,6,5.8,5.8,0,0,0,4.8,2.4,5.5,5.5,0,0,0,5.1-3.2v2.8H376V281.5Zm-16.6,5.8h-2.6v9.1a6.8,6.8,0,0,1-.6,2.9,5.3,5.3,0,0,1-1.7,1.9,3.6,3.6,0,0,1-2.2.7,3.1,3.1,0,0,1-2.2-.9c-.7-.6-1-1.7-1-3.3V287.3H344v10.4a7.3,7.3,0,0,0,1.4,4.7,5.1,5.1,0,0,0,4,1.6c2.3,0,4-1.2,5.2-3.5v3.1h2.3Zm-19,14.7c-1.7,0-2.6-.8-2.6-2.5V289.2H339v-1.9h-3.7v-4.4l-2.3.2v4.2H330v1.9h2.9v9.9c0,3.3,1.5,4.9,4.7,4.9h2.3v-2.1a7.1,7.1,0,0,1-2,.2m-17.1,2a7.8,7.8,0,0,0,5-1.4,4.3,4.3,0,0,0,1.8-3.6c0-2.6-1.6-4.2-5-4.8l-3.2-.6c-1.6-.3-2.5-1.1-2.5-2.3a2.1,2.1,0,0,1,1-1.8,4.9,4.9,0,0,1,2.5-.6,4.1,4.1,0,0,1,4.2,2.6l2.3-.5q-1.2-4.2-6.6-4.2a6.8,6.8,0,0,0-4.4,1.4,4.1,4.1,0,0,0-1.6,3.4,3.8,3.8,0,0,0,1.2,3,5.6,5.6,0,0,0,3.2,1.5l3.5.7c1.8.3,2.8,1.1,2.8,2.4a2.3,2.3,0,0,1-1.1,2,5,5,0,0,1-2.7.7c-2.9,0-4.6-1-5.1-3.1l-2.5.5c1,3.2,3.3,4.7,7.2,4.7" transform="translate(-313.6 -274.5)"/>
            <path class="cls-1b" d="M506.9,285.2a1.9,1.9,0,1,0,0-3.7,1.8,1.8,0,0,0-1.8,1.8,1.8,1.8,0,0,0,1.8,1.9" transform="translate(-313.6 -274.5)"/>
            <path class="cls-1b" d="M431.4,287.9a6.6,6.6,0,0,0-1.9,3.3v-3.9h-3.4v16.3h3.7v-7.5a7.9,7.9,0,0,1,.9-3.5c.6-1.2,1.9-1.8,3.7-1.8v-3.9h-.5A3.8,3.8,0,0,0,431.4,287.9Z" transform="translate(-313.6 -274.5)"/>
            <path class="cls-1b" d="M416.1,282.7a6,6,0,0,0-1.2,3.8v.8h-2.4v2.9h2.4v13.4h3.6V290.2h3.6v-2.9h-3.6a9.8,9.8,0,0,1,.1-2,1.3,1.3,0,0,1,.7-.8,3,3,0,0,1,1.9-.4h.9v-2.9h-1.3C418.4,281.3,416.9,281.7,416.1,282.7Z" transform="translate(-313.6 -274.5)"/>
            <path class="cls-1b" d="M498.6,294.8a2.2,2.2,0,0,1,1.7,1h0l2.2-20.9-3.6-.4-2.2,20.9A2.6,2.6,0,0,1,498.6,294.8Z" transform="translate(-313.6 -274.5)"/>
            <polygon class="cls-1b" points="162.1 29.1 165.6 29.1 165.6 24.8 165.6 7.1 162.1 7.1 162.1 29.1"/>
            <rect class="cls-1b" x="191.4" y="12.8" width="3.7" height="16.27"/>
            <path class="cls-1b" d="M451.8,293a10.5,10.5,0,0,0-.3-3,4.2,4.2,0,0,0-1.1-1.6,4.9,4.9,0,0,0-2-1.1,13.5,13.5,0,0,0-3.1-.3,8.8,8.8,0,0,0-5.3,1.3,4.4,4.4,0,0,0-2.1,3.4l3.1.4c.3-1.7,1.6-2.5,3.8-2.5s3.5.8,3.5,2.5v1.3h-1.1c-6.6,0-9.8,1.9-9.8,5.6a4.9,4.9,0,0,0,1.4,3.6,5.3,5.3,0,0,0,3.9,1.5,5.5,5.5,0,0,0,5.6-3.7,11.4,11.4,0,0,0,.5,3.3h3.5a12.6,12.6,0,0,1-.5-3.3Zm-3.5,3.8a4.9,4.9,0,0,1-1.1,3.1,4.1,4.1,0,0,1-3.2,1.3,3.4,3.4,0,0,1-2.2-.7,2.9,2.9,0,0,1-.7-1.8c0-2.2,2.4-3.4,7.2-3.4Z" transform="translate(-313.6 -274.5)"/>
            <path class="cls-1b" d="M526.4,288.4a5.7,5.7,0,0,0-3.7-1.4c-2.1,0-3.8,1.4-4.9,4.1v-3.8h-3.4v16.3h3.7v-8.3a5.2,5.2,0,0,1,1.1-3.8,3,3,0,0,1,2.5-1.3,2.5,2.5,0,0,1,1.8.8,3.7,3.7,0,0,1,.7,2.5v10.1h3.7V293.1C527.9,290.8,527.4,289.3,526.4,288.4Z" transform="translate(-313.6 -274.5)"/>
            <path class="cls-1b" d="M465.8,287c-2.1,0-3.7,1.4-4.9,4.1v-3.8h-3.4v16.3h3.7v-8.3a5.7,5.7,0,0,1,1.1-3.8,3.1,3.1,0,0,1,2.5-1.3,2.5,2.5,0,0,1,1.8.8,3.7,3.7,0,0,1,.7,2.5v10.1H471V293.1c0-2.3-.5-3.8-1.5-4.7A5.3,5.3,0,0,0,465.8,287Z" transform="translate(-313.6 -274.5)"/>
            <path class="cls-1b" d="M383.6,284.7a1.5,1.5,0,0,0,1.5-1.5,1.5,1.5,0,0,0-1.5-1.4,1.4,1.4,0,0,0-1.4,1.4,1.5,1.5,0,0,0,1.4,1.5" transform="translate(-313.6 -274.5)"/>
            <path class="cls-2b" d="M499.4,298.2a1.7,1.7,0,0,0-1.1,2.3c.6,1.4,2.3.9,2.8,2.2a2.2,2.2,0,0,1-1.4,2.8c-4.2,1.7-11.5-6.6-17.5-13.6a7.9,7.9,0,0,1,3.9-5.5c1-.4,1.7-.3,1.9.4s-1,1.9-.4,3.3a1.4,1.4,0,0,0,2.1.8c1.2-.4,1.5-2,.9-3.6a3.4,3.4,0,0,0-4.7-1.9c-2.9,1.2-5.3,5.2-5.1,10.6,5.9,6.9,11.7,13.8,18.3,11.2a5.6,5.6,0,0,0,3.1-7.5,2.1,2.1,0,0,0-2.8-1.5" transform="translate(-313.6 -274.5)"/>
        </g>
  </g>
</svg>
