<svg xmlns="http://www.w3.org/2000/svg" width="76.2mm" height="15.3mm" viewBox="0 0 215.9 43.3">
    <style>

      .cls-2 {
        fill: #160e44;
      }
      .cls-1 {
        fill: none;
      }
      .cls-3 {
        fill: #160e44;
      }

      g:hover .cls-2 {
        fill: #ecbbbe;
      }

    </style>
  <title>franklin-logo</title>
  <g>
      <rect class="cls-1" width="215.9" height="43.33"/>
      <path class="cls-2" d="M397.4,286.8a6.8,6.8,0,0,0-5.2,2.3,9,9,0,0,0-2.1,6.2,10.1,10.1,0,0,0,1.8,6.2,6.2,6.2,0,0,0,5.3,2.5,6.8,6.8,0,0,0,5.4-2.4,9.1,9.1,0,0,0,2.1-6.2,9.7,9.7,0,0,0-1.9-6.2A6.6,6.6,0,0,0,397.4,286.8Zm3.2,13.5a3.8,3.8,0,0,1-3.2,1.6,4.3,4.3,0,0,1-3.3-1.5,10.3,10.3,0,0,1,0-10,4.2,4.2,0,0,1,3.2-1.5,4.4,4.4,0,0,1,3.3,1.5c.9,1,1.3,2.7,1.3,4.9S401.5,299.2,400.6,300.3Z" transform="translate(-313.1 -274.2)"/>
      <rect class="cls-2" x="69.3" y="13.1" width="2.5" height="16.32"/>
      <path class="cls-2" d="M373.5,289.5a5.8,5.8,0,0,0-9.7-.2,10.1,10.1,0,0,0-1.8,6.2,9.8,9.8,0,0,0,1.8,6.1,5.8,5.8,0,0,0,4.8,2.4,5.5,5.5,0,0,0,5.1-3.2v2.8H376V281.5h-2.5Zm0,7.4a5,5,0,0,1-1.4,3.5,4,4,0,0,1-3.1,1.5,3.7,3.7,0,0,1-3.1-1.7,9.5,9.5,0,0,1-1.1-5,8,8,0,0,1,1.2-4.7,3.8,3.8,0,0,1,3.1-1.7,4.2,4.2,0,0,1,3.1,1.3,4.9,4.9,0,0,1,1.3,3.4Z" transform="translate(-313.1 -274.2)"/>
      <path class="cls-2" d="M354.3,296.4a6.4,6.4,0,0,1-.6,2.8,4.9,4.9,0,0,1-1.7,2,3.6,3.6,0,0,1-2.2.7,3.1,3.1,0,0,1-2.2-.9c-.7-.6-1-1.7-1-3.3V287.2H344v10.5a7.3,7.3,0,0,0,1.4,4.7,5.1,5.1,0,0,0,4,1.6c2.3,0,4-1.2,5.2-3.6v3.2h2.3V287.2h-2.6Z" transform="translate(-313.1 -274.2)"/>
      <path class="cls-2" d="M335.3,299.5V289.2H339v-2h-3.7v-4.3l-2.3.2v4.1H330v2h2.9v9.9c0,3.3,1.5,4.9,4.7,4.9a10.2,10.2,0,0,0,2.3-.2v-2l-2,.2C336.2,302,335.3,301.2,335.3,299.5Z" transform="translate(-313.1 -274.2)"/>
      <path class="cls-2" d="M322.6,294.2l-3.2-.6c-1.6-.3-2.5-1.1-2.5-2.3a1.9,1.9,0,0,1,1-1.8,4.9,4.9,0,0,1,2.5-.6c2.1,0,3.5.8,4.2,2.5l2.3-.5c-.8-2.7-3-4.1-6.6-4.1a6.3,6.3,0,0,0-4.4,1.4,4.1,4.1,0,0,0-1.6,3.4,4.1,4.1,0,0,0,1.2,3,7.3,7.3,0,0,0,3.2,1.5l3.5.7c1.8.3,2.8,1.1,2.8,2.4a2.3,2.3,0,0,1-1.1,2,5,5,0,0,1-2.7.7c-2.9,0-4.6-1-5.1-3.1l-2.5.5c1,3.1,3.3,4.7,7.2,4.7a8.5,8.5,0,0,0,5-1.4,4.3,4.3,0,0,0,1.8-3.6C327.6,296.4,326,294.8,322.6,294.2Z" transform="translate(-313.1 -274.2)"/>
      <path class="cls-2" d="M506.9,281.5a1.8,1.8,0,0,0-1.8,1.8,1.9,1.9,0,0,0,1.8,1.9,2,2,0,0,0,1.9-1.9A1.9,1.9,0,0,0,506.9,281.5Z" transform="translate(-313.1 -274.2)"/>
      <path class="cls-2" d="M431.4,287.9a6.6,6.6,0,0,0-1.9,3.3v-3.9h-3.4v16.3h3.7v-7.5a7.6,7.6,0,0,1,.9-3.5c.6-1.2,1.9-1.8,3.7-1.8v-3.9h-.5A4,4,0,0,0,431.4,287.9Z" transform="translate(-313.1 -274.2)"/>
      <path class="cls-2" d="M416.1,282.7a5.8,5.8,0,0,0-1.2,3.8v.8h-2.4v2.9h2.4v13.4h3.6V290.2h3.6v-2.9h-3.6a9.8,9.8,0,0,1,.1-2,1.3,1.3,0,0,1,.7-.8,3,3,0,0,1,1.9-.4h.9v-2.9h-1.3C418.4,281.2,416.9,281.7,416.1,282.7Z" transform="translate(-313.1 -274.2)"/>
      <path class="cls-2" d="M499.6,302.4V281.6h-3.7v20.8a2.7,2.7,0,0,1,1.9-.8A2.3,2.3,0,0,1,499.6,302.4Z" transform="translate(-313.1 -274.2)"/>
      <polygon class="cls-2" points="162.6 29.4 166.1 29.4 166.1 25.1 166.1 7.4 162.6 7.4 162.6 29.4"/>
      <rect class="cls-2" x="191.9" y="13.2" width="3.7" height="16.27"/>
      <path class="cls-2" d="M451.8,293a10.5,10.5,0,0,0-.3-3,4.2,4.2,0,0,0-1.1-1.6,4.9,4.9,0,0,0-2-1.1,13.5,13.5,0,0,0-3.1-.3,8.8,8.8,0,0,0-5.3,1.3,4.4,4.4,0,0,0-2.1,3.3l3.1.5c.3-1.7,1.6-2.5,3.8-2.5s3.5.8,3.5,2.5v1.2h-1.1c-6.6,0-9.8,1.9-9.8,5.6a4.9,4.9,0,0,0,1.4,3.6,5.2,5.2,0,0,0,3.9,1.4,5.6,5.6,0,0,0,5.6-3.6,11.4,11.4,0,0,0,.5,3.3h3.5a12.6,12.6,0,0,1-.5-3.3Zm-3.5,3.8a4.6,4.6,0,0,1-1.1,3,3.9,3.9,0,0,1-3.2,1.4,3.4,3.4,0,0,1-2.2-.7,2.9,2.9,0,0,1-.7-1.8c0-2.2,2.4-3.4,7.2-3.4Z" transform="translate(-313.1 -274.2)"/>
      <path class="cls-2" d="M526.4,288.3a5.6,5.6,0,0,0-3.7-1.3c-2.1,0-3.8,1.4-4.9,4.1v-3.8h-3.4v16.3h3.7v-8.4a5.1,5.1,0,0,1,1.1-3.7,3,3,0,0,1,2.5-1.3,2.5,2.5,0,0,1,1.8.8,3.6,3.6,0,0,1,.7,2.4v10.2h3.7V293.1Q527.9,289.7,526.4,288.3Z" transform="translate(-313.1 -274.2)"/>
      <path class="cls-2" d="M465.8,287c-2.1,0-3.7,1.4-4.9,4.1v-3.8h-3.4v16.3h3.7v-8.4a5.6,5.6,0,0,1,1.1-3.7,3.1,3.1,0,0,1,2.5-1.3,2.5,2.5,0,0,1,1.8.8,3.6,3.6,0,0,1,.7,2.4v10.2H471V293.1q0-3.5-1.5-4.8A5.2,5.2,0,0,0,465.8,287Z" transform="translate(-313.1 -274.2)"/>
      <circle class="cls-2" cx="70.5" cy="9" r="1.5"/>
      <path class="cls-3" d="M497.8,303.2h-.2a1.7,1.7,0,0,0-1.4.6,1.8,1.8,0,0,0-.4,1.4,2,2,0,0,0,1,1.6c.4.3.9.6.9,1.3a1.5,1.5,0,0,1-.5,1.3,1.9,1.9,0,0,1-1.6.8c-4.5.3-9.2-10.8-12.3-18.2,1.6-2.5,3.8-3.8,5.3-3.9s1.5.2,1.6.8a1.9,1.9,0,0,1-.7,1.4,2.1,2.1,0,0,0-.8,1.6,1.8,1.8,0,0,0,2,1.6,2,2,0,0,0,1.6-1,4.1,4.1,0,0,0,.4-2.3,3.4,3.4,0,0,0-4-3.3c-3.5.2-6.9,3.7-8.2,8.5h-.1l.3.6c3.4,8.1,6.7,15.8,13.3,15.8h.5a5.3,5.3,0,0,0,4-1.9,5.7,5.7,0,0,0,1.4-4.4C499.8,303.9,498.8,303.2,497.8,303.2Z" transform="translate(-313.1 -274.2)"/>

  </g>
</svg>
