<svg xmlns="http://www.w3.org/2000/svg" width="215.9" height="43.3" viewBox="0 0 215.9 43.3">
  <defs>
    <style>
      .cls-1 {
        fill: none;
      }

      .cls-2 {
        fill: #160e44;
      }
    </style>
  </defs>
  <title>franklin-logo</title>
  <g id="Layer_2" data-name="Layer 2">
    <g id="studiofranklin-logo">
      <g>
        <rect class="cls-1" width="215.9" height="43.33"/>
        <g>
          <path class="cls-2" d="M193.7,7.3a1.8,1.8,0,0,0-1.8,1.9,1.8,1.8,0,0,0,3.6,0A1.8,1.8,0,0,0,193.7,7.3Z"/>
          <path class="cls-2" d="M118.3,13.7a6.6,6.6,0,0,0-2,3.3V13.2H113V29.4h3.7V21.9a7.9,7.9,0,0,1,.9-3.5c.6-1.2,1.8-1.8,3.7-1.8V12.7h-.5A3.6,3.6,0,0,0,118.3,13.7Z"/>
          <path class="cls-2" d="M103,8.5a6.1,6.1,0,0,0-1.2,3.9v.8H99.4V16h2.4V29.4h3.6V16H109V13.2h-3.6a9.3,9.3,0,0,1,.1-2,1,1,0,0,1,.6-.9,4.1,4.1,0,0,1,1.9-.4h1V7.1h-1.3C105.3,7.1,103.7,7.6,103,8.5Z"/>
          <path class="cls-2" d="M186.4,28.2V7.4h-3.7V28.2a2.6,2.6,0,0,1,1.9-.8A2.1,2.1,0,0,1,186.4,28.2Z"/>
          <polygon class="cls-2" points="162.6 29.4 166.1 29.4 166.1 25.1 166.1 7.4 162.6 7.4 162.6 29.4"/>
          <rect class="cls-2" x="191.9" y="13.2" width="3.7" height="16.27"/>
          <path class="cls-2" d="M138.7,18.8a10.5,10.5,0,0,0-.3-3,3.6,3.6,0,0,0-1.2-1.6,4.3,4.3,0,0,0-2-1.1,13,13,0,0,0-3.1-.3,9.9,9.9,0,0,0-5.3,1.3,5,5,0,0,0-2.1,3.4l3.2.4c.3-1.6,1.5-2.5,3.8-2.5s3.4.9,3.4,2.5v1.3h-1c-6.6,0-9.9,1.8-9.9,5.6a4.9,4.9,0,0,0,1.5,3.6,5.6,5.6,0,0,0,3.9,1.4,5.5,5.5,0,0,0,5.5-3.6,15.2,15.2,0,0,0,.6,3.2h3.5a9.3,9.3,0,0,1-.5-3.2Zm-3.6,3.9a4.3,4.3,0,0,1-1.1,3,3.6,3.6,0,0,1-3.1,1.3,2.9,2.9,0,0,1-2.2-.7,2.3,2.3,0,0,1-.7-1.7c0-2.3,2.4-3.4,7.1-3.4Z"/>
          <path class="cls-2" d="M213.2,14.2a5.3,5.3,0,0,0-3.7-1.4c-2.1,0-3.7,1.4-4.9,4.1V13.2h-3.3V29.4h3.6V21.1a5.7,5.7,0,0,1,1.1-3.8,3.4,3.4,0,0,1,2.5-1.3,2.5,2.5,0,0,1,1.8.8,3.7,3.7,0,0,1,.8,2.5V29.4h3.6V18.9C214.7,16.7,214.2,15.1,213.2,14.2Z"/>
          <path class="cls-2" d="M152.7,12.8c-2.1,0-3.8,1.4-4.9,4.1V13.2h-3.4V29.4h3.7V21.1a5.2,5.2,0,0,1,1.1-3.8,3.3,3.3,0,0,1,2.5-1.3,2.5,2.5,0,0,1,1.8.8,3.7,3.7,0,0,1,.7,2.5V29.4h3.7V18.9c0-2.2-.5-3.8-1.5-4.7A5.7,5.7,0,0,0,152.7,12.8Z"/>
          <path class="cls-2" d="M184.6,29h-.1a1.7,1.7,0,0,0-1.4.7,1.5,1.5,0,0,0-.5,1.3,2.6,2.6,0,0,0,1,1.6,1.9,1.9,0,0,1,1,1.3,2.4,2.4,0,0,1-.5,1.4,2.4,2.4,0,0,1-1.6.7c-4.6.3-9.2-10.7-12.3-18.1,1.6-2.6,3.8-3.8,5.2-3.9s1.6.2,1.6.7-.3,1-.6,1.4a2,2,0,0,0-.8,1.7,1.8,1.8,0,0,0,1.9,1.6,2.3,2.3,0,0,0,1.6-1.1,4.1,4.1,0,0,0,.5-2.3,3.5,3.5,0,0,0-4-3.3c-3.5.2-6.9,3.8-8.3,8.6h0l.3.6c3.4,8.1,6.6,15.8,13.2,15.8h.6a5.6,5.6,0,0,0,4-1.8,6.6,6.6,0,0,0,1.4-4.5A2.3,2.3,0,0,0,184.6,29Z"/>
        </g>
        <g>
          <path class="cls-2" d="M0,25.7,3.5,25C4,26.3,5.2,27,7,27s3.4-.7,3.4-2a1.4,1.4,0,0,0-.6-1.1,3.3,3.3,0,0,0-1.2-.5l-3-.6C2.3,22.2.7,20.6.7,18a4.9,4.9,0,0,1,1.6-3.7,6.2,6.2,0,0,1,4.6-1.5c3.4,0,5.5,1.3,6.3,3.8l-3.3.7c-.3-1.2-1.3-1.9-2.9-1.9s-2.9.7-2.9,1.9.8,1.4,2.3,1.7l3.5.8c2.7.5,4.1,2.1,4.1,4.6a4.4,4.4,0,0,1-2.1,4,8.9,8.9,0,0,1-5,1.3,9.2,9.2,0,0,1-4.4-1A4.7,4.7,0,0,1,0,25.7Z"/>
          <path class="cls-2" d="M25.5,26.5v2.9l-2.5.4a5.3,5.3,0,0,1-2.6-.6,3.3,3.3,0,0,1-1.5-1.6,8.5,8.5,0,0,1-.5-3.2V16h-2V13.2h2.2L18.9,9l3-.3v4.5h3.3V16H21.9v7.9q0,1.7.6,2.1a2.9,2.9,0,0,0,2.1.6Z"/>
          <path class="cls-2" d="M43.1,29.4H39.7V25.9c-.9,2.6-2.6,3.8-5.1,3.8a4.5,4.5,0,0,1-3.5-1.3,5.3,5.3,0,0,1-1.3-3.9V13.2h3.7V23.8a2.9,2.9,0,0,0,.8,2.3,3,3,0,0,0,1.5.5,3.7,3.7,0,0,0,2.4-1.1c.9-.7,1.3-2.2,1.3-4.5V13.2h3.6Z"/>
          <path class="cls-2" d="M61.5,29.4H58.1V26.1q-1.4,3.6-4.8,3.6a5.2,5.2,0,0,1-4.6-2.4,12.1,12.1,0,0,1-1.5-6.2,10.8,10.8,0,0,1,1.6-6,5.4,5.4,0,0,1,4.7-2.6,4.5,4.5,0,0,1,4.4,2.9V7.5h3.6Zm-3.6-9.6a4,4,0,0,0-1-3,2.8,2.8,0,0,0-2.4-1.1A2.7,2.7,0,0,0,52,17.1a6.9,6.9,0,0,0-1,4.2c0,3.6,1.2,5.4,3.4,5.4a3.4,3.4,0,0,0,2.4-1.1,4.4,4.4,0,0,0,1.1-3Z"/>
          <g>
            <path class="cls-2" d="M69.1,7.3a1.9,1.9,0,1,0,0,3.7,1.8,1.8,0,0,0,1.8-1.8A1.8,1.8,0,0,0,69.1,7.3Z"/>
            <path class="cls-2" d="M70.9,29.4H67.2V13.2h3.7Z"/>
          </g>
          <path class="cls-2" d="M82.3,29.7a6.4,6.4,0,0,1-5.5-2.5,10.4,10.4,0,0,1-1.9-6,8.8,8.8,0,0,1,2.1-6,7.1,7.1,0,0,1,5.6-2.4,6.8,6.8,0,0,1,5.3,2.4,8.4,8.4,0,0,1,2.1,6,8.4,8.4,0,0,1-2.2,6.2A7,7,0,0,1,82.3,29.7Zm.1-3c2.5,0,3.7-1.8,3.7-5.5a8.4,8.4,0,0,0-.8-3.9,3,3,0,0,0-2.8-1.5,3.1,3.1,0,0,0-2.8,1.5,7.6,7.6,0,0,0-.9,4,6.6,6.6,0,0,0,1,4A2.8,2.8,0,0,0,82.4,26.7Z"/>
        </g>
      </g>
    </g>
  </g>
</svg>
